<svg height="512pt" viewBox="-68 0 512 512" width="512pt" xmlns="http://www.w3.org/2000/svg"><path d="m321.382812 227.980469h-265.824218c-25.335938 0-45.871094-20.539063-45.871094-45.875v-128.734375c0-25.335938 20.539062-45.871094 45.871094-45.871094h265.824218c25.332032 0 45.871094 20.539062 45.871094 45.871094v128.734375c0 25.335937-20.539062 45.875-45.871094 45.875zm0 0" fill="#80c56e"/><path d="m321.382812 7.5h-3.671874v220.480469h3.671874c25.332032 0 45.871094-20.539063 45.871094-45.875v-128.734375c0-25.332032-20.539062-45.871094-45.871094-45.871094zm0 0" fill="#70b25d"/><path d="m336.484375 331.757812c-27.386719-13.90625-56.246094-23.710937-85.710937-29.429687-13.527344-2.621094-23.367188-14.347656-23.367188-28.128906v-44.585938h-77.871094v44.585938c0 13.78125-9.839844 25.507812-23.371094 28.132812-29.460937 5.714844-58.320312 15.519531-85.710937 29.425781-20.214844 10.261719-32.953125 31.011719-32.953125 53.683594v109.144532c0 5.476562 4.441406 9.914062 9.914062 9.914062h342.109376c5.476562 0 9.914062-4.4375 9.914062-9.914062v-109.144532c0-22.671875-12.734375-43.421875-32.953125-53.683594zm0 0" fill="#fed6a6"/><path d="m336.484375 331.757812c-27.386719-13.90625-56.246094-23.710937-85.710937-29.429687-13.527344-2.621094-23.367188-14.347656-23.367188-28.128906v-44.585938h-48.90625v81.601563c0 13.78125 9.839844 25.503906 23.367188 28.128906 29.464843 5.714844 58.324218 15.523438 85.710937 29.425781 20.21875 10.261719 32.953125 31.011719 32.953125 53.683594v82.046875h38.992188c5.476562 0 9.917968-4.4375 9.917968-9.914062v-109.144532c-.003906-22.671875-12.738281-43.421875-32.957031-53.683594zm0 0" fill="#efc79c"/><path d="m336.484375 331.757812c-25.398437-12.898437-52.066406-22.261718-79.308594-28.113281.003907.082031-68.707031 107.574219-68.707031 107.574219l-68.707031-107.574219c-27.238281 5.851563-53.90625 15.214844-79.308594 28.113281-20.214844 10.261719-32.953125 31.011719-32.953125 53.683594v109.144532c0 5.476562 4.441406 9.914062 9.914062 9.914062h342.109376c5.476562 0 9.914062-4.4375 9.914062-9.914062v-109.144532c0-22.671875-12.734375-43.421875-32.953125-53.683594zm0 0" fill="#d7dee3"/><path d="m359.523438 504.5c5.476562 0 9.917968-4.4375 9.917968-9.914062v-109.144532c0-22.671875-12.738281-43.421875-32.953125-53.683594-25.402343-12.898437-52.070312-22.261718-79.308593-28.113281 0 0 0 0-.003907 0v.003907c0 .003906-26.640625 41.75-27.109375 42.484374 19.667969 5.660157 38.929688 13.203126 57.515625 22.636719 20.214844 10.261719 32.953125 31.011719 32.953125 53.683594v82.046875zm0 0" fill="#ccd2d6"/><path d="m210.441406 22.078125h-43.945312c-47.816406 0-86.585938 38.765625-86.585938 86.585937v53.308594h217.117188v-53.308594c0-47.820312-38.765625-86.585937-86.585938-86.585937zm0 0" fill="#fdbd37"/><path d="m210.441406 22.078125h-43.945312c-.9375 0-1.867188.019531-2.796875.050781 46.523437 1.480469 83.785156 39.652344 83.785156 86.535156v53.308594h49.542969v-53.308594c0-47.820312-38.765625-86.585937-86.585938-86.585937zm0 0" fill="#fa9a39"/><path d="m106.175781 131.449219h-14.160156c-12.011719 0-21.738281 9.738281-21.738281 21.75v10.292969c0 12.011718 9.726562 21.75 21.738281 21.75h14.160156zm0 0" fill="#fed6a6"/><path d="m270.765625 131.449219h14.15625c12.015625 0 21.742187 9.738281 21.742187 21.75v10.292969c0 12.011718-9.726562 21.75-21.742187 21.75h-14.15625zm0 0" fill="#fed6a6"/><path d="m109.027344 119.542969c-6.445313-1.117188-12.328125 3.882812-12.300782 10.425781l.257813 55.507812c0 68.179688 64.644531 89.78125 91.976563 90.015626 27.328124-.421876 91.347656-18.234376 91.347656-90.648438l-.234375-54.890625c-.019531-5.109375-4.28125-9.152344-9.386719-8.960937-20.046875.753906-37.824219-21.496094-45-31.878907-1.707031-2.464843-5.246094-2.601562-7.207031-.339843-27.875 32.140624-84.449219 35.089843-109.453125 30.769531zm0 0" fill="#ffe3c2"/><path d="m280.074219 129.953125c-.019531-5.109375-4.28125-9.152344-9.386719-8.960937-16.414062.617187-31.304688-14.1875-40.101562-25.269532l.179687 89.121094c0 54.566406-36.351563 78.125-65.960937 86.605469 9.230468 2.75 17.722656 3.988281 24.15625 4.042969 27.328124-.421876 91.347656-18.234376 91.347656-90.648438zm0 0" fill="#fed6a6"/><path d="m257.179688 303.644531 26.488281 28.796875c4.585937 4.945313 2.917969 12.9375-3.265625 15.628906l-28.410156 12.382813-1.828126 20.085937c-.398437 4.386719-3.675781 7.964844-8.011718 8.746094l-53.683594 21.933594zm0 0" fill="#b2b9bf"/><path d="m359.523438 504.5c5.476562 0 9.917968-4.4375 9.917968-9.914062v-109.144532c0-22.671875-12.738281-43.421875-32.953125-53.683594-25.402343-12.898437-52.070312-22.261718-79.308593-28.113281 0 0 0 0-.003907 0v.003907c0 .003906-26.640625 41.75-27.109375 42.484374 19.667969 5.660157 38.929688 13.203126 57.515625 22.636719 20.214844 10.261719 32.953125 31.011719 32.953125 53.683594v82.046875zm0 0" fill="#ccd2d6"/><path d="m257.179688 303.644531h-.003907v.003907c0 .003906-26.640625 41.746093-27.109375 42.480468 10.34375 2.980469 20.578125 6.496094 30.660156 10.515625l19.675782-8.574219c6.183594-2.695312 7.851562-10.6875 3.265625-15.628906zm0 0" fill="#a0a9af"/><path d="m119.761719 303.644531-26.488281 28.796875c-4.585938 4.945313-2.917969 12.9375 3.265624 15.628906l28.410157 12.382813 1.824219 20.085937c.402343 4.386719 3.679687 7.964844 8.011718 8.746094l53.683594 21.933594zm0 0" fill="#b2b9bf"/><path d="m189.867188 192.742188h6.738281c4.144531 0 7.5-3.355469 7.5-7.5 0-4.140626-3.355469-7.5-7.5-7.5h-2.453125v-16.160157c0-4.140625-3.355469-7.5-7.5-7.5-4.140625 0-7.5 3.359375-7.5 7.5v20.445313c0 5.910156 4.808594 10.714844 10.714844 10.714844zm0 0"/><path d="m154.140625 154.777344c-4.140625 0-7.5 3.355468-7.5 7.5 0 2.003906-1.628906 3.636718-3.636719 3.636718-2.003906 0-3.636718-1.632812-3.636718-3.636718 0-4.144532-3.355469-7.5-7.5-7.5-4.140626 0-7.5 3.355468-7.5 7.5 0 10.273437 8.359374 18.636718 18.636718 18.636718s18.636719-8.359374 18.636719-18.636718c0-4.144532-3.355469-7.5-7.5-7.5zm0 0"/><path d="m233.933594 180.914062c10.277344 0 18.636718-8.359374 18.636718-18.636718 0-4.144532-3.355468-7.5-7.5-7.5-4.140624 0-7.5 3.355468-7.5 7.5 0 2.003906-1.628906 3.636718-3.636718 3.636718-2.003906 0-3.636719-1.632812-3.636719-3.636718 0-4.144532-3.355469-7.5-7.5-7.5-4.140625 0-7.5 3.355468-7.5 7.5 0 10.277344 8.359375 18.636718 18.636719 18.636718zm0 0"/><path d="m214.300781 224.265625c0-4.144531-3.355469-7.5-7.5-7.5h-36.664062c-4.140625 0-7.5 3.355469-7.5 7.5 0 4.140625 3.359375 7.5 7.5 7.5h36.664062c4.144531 0 7.5-3.359375 7.5-7.5zm0 0"/><path d="m340.179688 325.222656c-27.785157-14.140625-57.386719-24.320312-87.976563-30.253906-10.023437-1.945312-17.296875-10.679688-17.296875-20.769531v-2.566407c4.859375-2.34375 9.664062-5.101562 14.269531-8.316406 16.519531-11.53125 36.007813-32.980468 38.390625-70.691406 14.890625-1.339844 26.597656-13.894531 26.597656-29.132812v-10.289063c0-8.59375-3.722656-16.332031-9.636718-21.6875v-22.847656c0-48.867188-37.445313-89.152344-85.148438-93.667969h102.003906c21.191407 0 38.371094 17.179688 38.371094 38.371094v128.734375c0 21.195312-17.179687 38.375-38.371094 38.375h-15.492187c-3.835937 0-7.265625 2.753906-7.730469 6.558593-.550781 4.5625 2.992188 8.441407 7.445313 8.441407h15.777343c29.476563 0 53.371094-23.894531 53.371094-53.371094v-128.738281c0-29.476563-23.894531-53.371094-53.371094-53.371094h-265.824218c-29.476563 0-53.371094 23.894531-53.371094 53.371094v128.734375c0 29.476562 23.894531 53.375 53.371094 53.375h16.546875c3.835937 0 7.265625-2.753907 7.726562-6.5625.554688-4.5625-2.988281-8.4375-7.441406-8.4375h-16.832031c-21.191406 0-38.371094-17.179688-38.371094-38.375v-128.734375c0-21.191406 17.179688-38.371094 38.371094-38.371094h102.003906c-47.703125 4.515625-85.152344 44.800781-85.152344 93.664062v22.851563c-5.914062 5.355469-9.632812 13.09375-9.632812 21.683594v10.292969c0 15.355468 11.886718 27.984374 26.9375 29.160156 2.328125 36.046875 21.992187 57.546875 38.652344 69.417968 4.457031 3.175782 9.054687 5.933594 13.667968 8.304688v3.824219c0 10.089843-7.273437 18.824219-17.296875 20.769531-30.480469 5.910156-59.980469 16.039062-87.679687 30.097656-22.859375 11.605469-37.058594 34.738282-37.058594 60.371094v109.148438c0 9.617187 7.796875 17.414062 17.414062 17.414062h342.109376c9.621093 0 17.417968-7.796875 17.417968-17.414062v-109.148438c0-25.371094-14.144531-48.707031-36.761718-60.214844zm-62.773438 15.972656-28.410156 12.382813c-2.511719 1.09375-4.226563 3.46875-4.472656 6.195313l-1.828126 20.085937c-.09375 1.023437-.917968 1.667969-1.871093 2.042969-5.648438 2.230468-33.3125 13.433594-33.3125 13.433594l50.742187-79.445313s19.875 21.609375 19.914063 21.648437c.515625.5625 1.050781 2.773438-.761719 3.65625zm21.757812-177.703124c0 6.878906-4.898437 12.636718-11.386718 13.964843l-.164063-38.253906c6.570313 1.265625 11.550781 7.058594 11.550781 13.996094zm-211.753906-54.828126c0-43.675781 35.410156-79.085937 79.085938-79.085937h43.945312c43.675782 0 79.085938 35.410156 79.085938 79.085937v15.648438c-1.007813-.160156-2.035156-.269531-3.074219-.324219-.855469-2.203125-2.195313-4.210937-3.957031-5.898437-3.265625-3.132813-7.558594-4.761719-12.089844-4.59375-4.28125.167968-19.730469-1.425782-38.554688-28.648438-3.199218-4.625-9.179687-6.546875-15.015624-4.136718-1.492188.613281-2.753907 1.671874-3.804688 2.894531-14.03125 16.367187-35.960938 23.648437-51.847656 26.875-20.523438 4.167969-39.738282 3.59375-50.878906 1.667969-5.253907-.910157-10.609376.546874-14.6875 3.996093-2.503907 2.117188-4.351563 4.835938-5.398438 7.859375-.949219.054688-1.882812.160156-2.808594.304688zm-9.632812 54.828126v-10.292969c0-6.917969 4.949218-12.699219 11.492187-13.984375l.179688 38.296875c-6.632813-1.214844-11.671875-7.039063-11.671875-14.019531zm26.707031 21.949218-.257813-55.503906c-.007812-1.234375.671876-1.996094 1.078126-2.335938.339843-.289062.996093-.714843 1.917968-.714843.167969 0 .34375.015625.527344.046875 12.480469 2.15625 33.855469 2.832031 56.417969-1.75 17.21875-3.496094 40.777343-11.316406 57.496093-28.773438 20.871094 28.648438 39.734376 32.4375 49.308594 32.078125.546875-.023437.925782.222657 1.144532.429688.207031.199219.457031.546875.457031 1.070312l.234375 54.855469c0 28.984375-10.839844 51.246094-32.21875 66.171875-17.453125 12.183594-38.707032 16.753906-51.65625 16.976563-13.355469-.140626-34.539063-5.792969-51.859375-18.136719-21.625-15.410157-32.589844-37.070313-32.589844-64.414063zm52.457031 91.347656c12.265625 4.320313 23.714844 6.132813 31.953125 6.203126h.0625c.039063 0 .078125 0 .117188-.003907 8.539062-.128906 19.511719-1.742187 30.988281-5.433593 1.347656 14.371093 11.273438 26.621093 25.046875 31.050781l-56.640625 88.679687-56.640625-88.679687c14.019531-4.507813 24.050781-17.117188 25.113281-31.816407zm-58.148437 60.730469 19.894531-21.628906 50.738281 79.449219s-24.070312-9.761719-33.308593-13.433594c-.953126-.378906-1.777344-1.023438-1.875-2.046875l-1.824219-20.085937c-.246094-2.726563-1.960938-5.101563-4.472657-6.195313 0 0-28.410156-12.382813-28.410156-12.382813-1.449218-.632812-1.796875-2.539062-.742187-3.675781zm263.148437 157.066407c0 1.332031-1.082031 2.414062-2.417968 2.414062h-39.71875v-80.023438c0-3.835937-2.753907-7.265624-6.5625-7.730468-4.558594-.550782-8.4375 2.992187-8.4375 7.445312v80.308594h-108.835938v-25.140625c0-3.835937-2.753906-7.265625-6.5625-7.726563-4.558594-.554687-8.4375 2.988282-8.4375 7.441407v25.425781h-108.835938v-80.023438c0-3.835937-2.753906-7.265624-6.5625-7.730468-4.558593-.550782-8.4375 2.992187-8.4375 7.445312v80.308594h-39.71875c-1.332031 0-2.414062-1.082031-2.414062-2.414062v-109.148438c0-19.953125 11.054688-37.960938 28.847656-46.996094 17.109375-8.683594 34.941406-15.796875 53.277344-21.265625l-9.351562 10.164063c-5.238282 5.648437-6.273438 14.355468-1.761719 21.28125 1.882812 2.890625 4.675781 5.082031 7.839843 6.460937l24.03125 10.472657 1.421876 15.664062c.675781 7.417969 6.078124 13.578125 13.269531 15.265625l48.394531 19.773437v20.125c0 3.832032 2.757812 7.265626 6.5625 7.726563 4.5625.550781 8.4375-2.992187 8.4375-7.445313v-20.40625l48.394531-19.773437c7.195313-1.6875 12.597657-7.847656 13.269531-15.265625l1.425782-15.664062 24.339844-10.609376c5.128906-2.234374 8.871093-6.835937 10.015624-12.3125 1.144532-5.476562-.441406-11.191406-4.226562-15.269531l-9.371094-10.191406c18.335938 5.472656 36.167969 12.585937 53.277344 21.269531 17.792969 9.035156 28.847656 27.042969 28.847656 46.996094zm0 0"/></svg>