<svg id="Layer_1" enable-background="new 0 0 512 512" height="512" viewBox="0 0 512 512" width="512" xmlns="http://www.w3.org/2000/svg"><g fill="#dd544f"><path d="m48.333 88.675c4.142 0 7.5-3.358 7.5-7.5s-3.358-7.5-7.5-7.5h-40.833c-4.142 0-7.5 3.358-7.5 7.5s3.358 7.5 7.5 7.5z"/><path d="m77.336 64.076c4.142 0 7.5-3.358 7.5-7.5v-49.076c0-4.142-3.358-7.5-7.5-7.5s-7.5 3.358-7.5 7.5v49.076c0 4.142 3.358 7.5 7.5 7.5z"/><path d="m324.905 73.675h-47.405c-3.827 0-6.978 2.868-7.437 6.571v-44.322c0-4.142-3.357-7.5-7.5-7.5s-7.5 3.358-7.5 7.5v49.076c0 4.142 3.357 7.5 7.5 7.5s7.5-3.358 7.5-7.5v-2.896c.458 3.703 3.609 6.571 7.437 6.571h47.405c4.143 0 7.5-3.358 7.5-7.5s-3.357-7.5-7.5-7.5z"/><path d="m200.222 88.675h42.111c4.142 0 7.5-3.358 7.5-7.5s-3.358-7.5-7.5-7.5h-42.111c-4.142 0-7.5 3.358-7.5 7.5s3.358 7.5 7.5 7.5z"/><path d="m75.833 149.129c0-4.142-3.358-7.5-7.5-7.5h-54.27c-4.142 0-7.5 3.358-7.5 7.5s3.358 7.5 7.5 7.5h54.27c4.143 0 7.5-3.358 7.5-7.5z"/><path d="m126.42 189.114c-4.142 0-7.5 3.358-7.5 7.5v48.523c0 4.142 3.358 7.5 7.5 7.5s7.5-3.358 7.5-7.5v-48.523c0-4.142-3.358-7.5-7.5-7.5z"/><path d="m201.71 189.5c-4.142 0-7.5 3.358-7.5 7.5v48.137c0 4.142 3.358 7.5 7.5 7.5s7.5-3.358 7.5-7.5v-48.137c0-4.142-3.358-7.5-7.5-7.5z"/><path d="m80.785 172.61-38.393 37.153c-2.977 2.88-3.055 7.628-.174 10.605 1.471 1.521 3.43 2.285 5.391 2.285 1.878 0 3.758-.701 5.214-2.11l38.393-37.153c2.977-2.88 3.055-7.628.174-10.605s-7.629-3.055-10.605-.175z"/><path d="m319.903 141.629h-42.903c-4.143 0-7.5 3.358-7.5 7.5s3.357 7.5 7.5 7.5h42.903c4.143 0 7.5-3.358 7.5-7.5s-3.357-7.5-7.5-7.5z"/><path d="m249.827 168.22c-2.915-2.941-7.665-2.963-10.606-.047-2.942 2.916-2.963 7.665-.047 10.606l38.163 38.505c1.467 1.479 3.396 2.22 5.327 2.22 1.908 0 3.817-.724 5.279-2.173 2.942-2.916 2.964-7.665.048-10.606z"/></g><path d="m180.661 342.279 36.568-36.901c2.916-2.942 2.894-7.691-.048-10.606-2.941-2.916-7.691-2.894-10.606.048l-36.568 36.901c-2.916 2.942-2.894 7.691.048 10.606 2.939 2.914 7.688 2.897 10.606-.048z" fill="#707dd3"/><path d="m62.755 439.389-34.865 34.115c-4.816 4.712-1.418 12.861 5.246 12.861 4.181 0 2.216.824 40.11-36.254 2.961-2.897 3.012-7.646.116-10.606-2.899-2.961-7.647-3.013-10.607-.116z" fill="#707dd3"/><path d="m56.838 313.196c-2.936-2.922-7.685-2.912-10.606.024-2.922 2.936-2.911 7.684.024 10.606l46.703 46.489c1.463 1.457 3.377 2.185 5.291 2.185 1.925 0 3.85-.737 5.315-2.209 2.922-2.936 2.911-7.684-.024-10.606z" fill="#707dd3"/><path d="m160.835 416.729c-2.911-2.947-7.66-2.976-10.606-.064-2.947 2.911-2.976 7.66-.064 10.606 41.336 41.841 39.01 40.682 43.325 40.682 6.618 0 10.019-8.03 5.335-12.771z" fill="#707dd3"/><path d="m122.401 326c4.142 0 7.5-3.358 7.5-7.5v-44.036c0-4.142-3.358-7.5-7.5-7.5s-7.5 3.358-7.5 7.5v44.036c0 4.142 3.358 7.5 7.5 7.5z" fill="#707dd3"/><path d="m122.635 448c-4.142 0-7.5 3.358-7.5 7.5v49c0 4.142 3.358 7.5 7.5 7.5s7.5-3.358 7.5-7.5v-49c0-4.142-3.358-7.5-7.5-7.5z" fill="#707dd3"/><path d="m237.536 381.865h-48.036c-4.142 0-7.5 3.358-7.5 7.5s3.358 7.5 7.5 7.5h48.036c4.142 0 7.5-3.358 7.5-7.5s-3.358-7.5-7.5-7.5z" fill="#707dd3"/><path d="m67 389.599c0-4.142-3.358-7.5-7.5-7.5h-52c-4.142 0-7.5 3.358-7.5 7.5s3.358 7.5 7.5 7.5h52c4.142 0 7.5-3.358 7.5-7.5z" fill="#707dd3"/><path d="m372.303 164.013c-4.143 0-7.5 3.358-7.5 7.5v51.154c0 4.142 3.357 7.5 7.5 7.5s7.5-3.358 7.5-7.5v-51.154c0-4.142-3.358-7.5-7.5-7.5z" fill="#fed22b"/><path d="m372.303 447.167c-4.143 0-7.5 3.358-7.5 7.5v49.833c0 4.142 3.357 7.5 7.5 7.5s7.5-3.358 7.5-7.5v-49.833c0-4.143-3.358-7.5-7.5-7.5z" fill="#fed22b"/><path d="m305.167 338.006c0-4.142-3.357-7.5-7.5-7.5h-57.561c-4.142 0-7.5 3.358-7.5 7.5s3.358 7.5 7.5 7.5h57.561c4.143 0 7.5-3.358 7.5-7.5z" fill="#fed22b"/><path d="m504.5 330.506h-58.5c-4.143 0-7.5 3.358-7.5 7.5s3.357 7.5 7.5 7.5h58.5c4.143 0 7.5-3.358 7.5-7.5s-3.357-7.5-7.5-7.5z" fill="#fed22b"/><path d="m438.86 393.791c-2.934-2.925-7.683-2.919-10.606.015-2.925 2.933-2.919 7.682.015 10.606 49.566 49.433 46.82 48.107 51.265 48.107 6.622 0 10.042-8.065 5.304-12.803-32.778-32.777-22.716-22.727-45.978-45.925z" fill="#fed22b"/><path d="m286.848 263.375c16.585 16.54 16.8 17.731 20.88 17.731 6.646 0 10.033-8.086 5.296-12.811-19.622-19.569-10.338-10.296-42.647-42.605-2.93-2.929-7.678-2.929-10.607 0s-2.929 7.678 0 10.606z" fill="#fed22b"/><path d="m439.896 280.96 44.733-44.891c2.924-2.934 2.916-7.683-.019-10.606-2.936-2.925-7.685-2.916-10.606.019l-44.733 44.891c-2.924 2.934-2.916 7.683.019 10.606 2.93 2.921 7.68 2.918 10.606-.019z" fill="#fed22b"/><path d="m309.777 391.618-49.71 48.237c-4.838 4.695-1.467 12.882 5.224 12.882 4.209 0 1.274 1.713 54.932-50.354 2.973-2.884 3.044-7.633.16-10.605-2.883-2.973-7.632-3.046-10.606-.16z" fill="#fed22b"/><path d="m193.406 215.153h-51.454c-58.464 0-106.028-47.564-106.028-106.028v-32.66c0-22.39 18.151-40.541 40.541-40.541s40.541 18.151 40.541 40.541v32.66c0 13.755 11.191 24.946 24.946 24.946h51.454c13.755 0 24.947-11.191 24.947-24.946 0-22.39 18.151-40.541 40.541-40.541s40.541 18.151 40.541 40.541c-.001 58.464-47.565 106.028-106.029 106.028z" fill="#fed22b"/><path d="m373.872 466.216c-49.021.868-88.885-39.477-88.885-88.506v-79.409c0-49.029 39.865-89.373 88.886-88.504 47.425.841 85.746 39.681 85.746 87.302v81.815c0 47.622-38.322 86.462-85.747 87.302z" fill="#dd544f"/><path d="m54.53 459.154c-26.783-25.851-26.525-68.912-.204-95.233l42.631-42.631c26.322-26.322 69.383-26.579 95.233.205 25.009 25.912 24.731 67.336-.835 92.902l-43.923 43.923c-25.565 25.566-66.991 25.844-92.902.834z" fill="#43cb94"/><path d="m100.557 441.436c-26.546 0-40.14-32.293-21.221-51.213l43.922-43.922c11.707-11.706 30.735-11.707 42.441 0 11.701 11.701 11.701 30.74 0 42.441l-43.922 43.922c-5.656 5.656-13.193 8.772-21.22 8.772z" fill="#dd544f"/><path d="m389.87 464.45c-5.18 1.07-10.53 1.67-16 1.77-49.02.86-88.88-39.48-88.88-88.51v-79.41c0-49.03 39.86-89.37 88.88-88.5 5.47.1 10.81.7 15.99 1.77-39.91 8.25-69.87 44.22-69.87 86.73v79.41c0 42.51 29.96 78.48 69.88 86.74z" fill="#d80a61"/><path d="m372.304 428.977c-27.605 0-50.064-22.458-50.064-50.063v-81.814c0-27.605 22.458-50.064 50.063-50.064s50.064 22.458 50.064 50.064v81.814c0 27.605-22.458 50.063-50.063 50.063z" fill="#fed22b"/><path d="m389.8 425.82c-5.45 2.04-11.35 3.16-17.5 3.16-27.6 0-50.06-22.46-50.06-50.07v-81.81c0-27.61 22.46-50.06 50.06-50.06 6.15 0 12.05 1.11 17.5 3.16-19 7.11-32.56 25.45-32.56 46.9v81.81c0 21.45 13.56 39.8 32.56 46.91z" fill="#f0a70a"/><path d="m89.33 363.92c-26.33 26.32-26.58 69.38.2 95.23 8.27 7.98 18.12 13.39 28.53 16.21-21.85 5.95-46.17.55-63.53-16.21-26.78-25.85-26.53-68.91-.2-95.23l42.63-42.63c17.64-17.64 42.81-23.58 65.27-17.5-11.1 2.98-21.59 8.82-30.27 17.5z" fill="#57988b"/><path d="m114.34 390.22c-14.07 14.07-10.16 35.54 3.68 45.62-5.05 3.64-11.11 5.6-17.46 5.6-26.55 0-40.14-32.3-21.22-51.22l43.92-43.92c10.54-10.54 27-11.59 38.72-3.16-1.3.93-2.55 1.99-3.72 3.16z" fill="#d80a61"/><path d="m176.95 215.15h-35c-58.46 0-106.03-47.56-106.03-106.03v-32.66c0-22.39 18.15-40.54 40.54-40.54 6.27 0 12.21 1.42 17.5 3.96-13.63 6.53-23.04 20.46-23.04 36.58v32.66c0 58.47 47.57 106.03 106.03 106.03z" fill="#f0a70a"/><ellipse cx="77.336" cy="84.843" fill="#dd544f" rx="13.079" ry="13.079" transform="matrix(.16 -.987 .987 .16 -18.799 147.59)"/><ellipse cx="259.674" cy="111.081" fill="#dd544f" rx="13.079" ry="13.079" transform="matrix(.995 -.099 .099 .995 -9.682 26.128)"/><circle cx="163.534" cy="173.63" fill="#dd544f" r="13.079"/></svg>