<svg height="512pt" viewBox="0 0 512 512" width="512pt" xmlns="http://www.w3.org/2000/svg"><path d="m224.753906 356.363281c-59.347656 0-115.292968-18.097656-157.53125-50.957031-43.351562-33.726562-67.222656-78.910156-67.222656-127.222656 0-48.316406 23.871094-93.5 67.222656-127.226563 42.238282-32.859375 98.183594-50.957031 157.53125-50.957031s115.292969 18.097656 157.53125 50.957031c43.347656 33.726563 67.222656 78.910157 67.222656 127.226563s-23.875 93.5-67.222656 127.222656c-42.238281 32.859375-98.183594 50.957031-157.53125 50.957031zm0 0" fill="#82a0d2"/><path d="m382.285156 305.40625c43.347656-33.726562 67.222656-78.910156 67.222656-127.222656 0-48.320313-23.875-93.5-67.222656-127.226563-42.238281-32.859375-98.183594-50.957031-157.53125-50.957031v356.363281c59.347656 0 115.292969-18.097656 157.53125-50.957031zm0 0" fill="#5877a6"/><path d="m423.148438 511.132812c-3.894532 0-7.726563-1.523437-10.589844-4.386718l-83.546875-83.546875c-13.71875 2.035156-27.730469 3.066406-41.765625 3.066406-59.347656 0-115.292969-18.097656-157.53125-50.960937-43.347656-33.726563-67.222656-78.90625-67.222656-127.222657 0-48.316406 23.875-93.5 67.222656-127.226562 42.238281-32.859375 98.183594-50.957031 157.53125-50.957031s115.292968 18.097656 157.53125 50.957031c43.351562 33.730469 67.222656 78.910156 67.222656 127.226562 0 50.664063-26.816406 98.441407-73.878906 132.183594v115.890625c0 6.058594-3.648438 11.519531-9.242188 13.835938-1.855468.769531-3.800781 1.140624-5.730468 1.140624zm0 0" fill="#fff35c"/><path d="m329.011719 423.199219 83.546875 83.546875c2.863281 2.863281 6.695312 4.386718 10.589844 4.386718 1.929687 0 3.875-.371093 5.730468-1.140624 5.59375-2.316407 9.242188-7.777344 9.242188-13.835938v-115.890625c47.0625-33.742187 73.878906-81.519531 73.878906-132.183594 0-48.316406-23.871094-93.496093-67.222656-127.222656-42.238282-32.863281-98.183594-50.960937-157.53125-50.960937v356.367187c14.035156 0 28.046875-1.03125 41.765625-3.066406zm0 0" fill="#ffd236"/><path d="m286.035156 271.898438c-8.269531 0-14.972656-6.703126-14.972656-14.972657v-23.074219c0-8.269531 6.703125-14.972656 14.972656-14.972656 8.746094 0 15.863282-7.117187 15.863282-15.863281 0-8.742187-7.117188-15.859375-15.863282-15.859375-6.390625 0-12.128906 3.804688-14.617187 9.691406-3.222657 7.617188-12.011719 11.179688-19.625 7.957032-7.617188-3.21875-11.179688-12.007813-7.957031-19.625 7.183593-16.992188 23.75-27.972657 42.199218-27.972657 25.261719 0 45.8125 20.550781 45.8125 45.808594 0 20.019531-12.90625 37.078125-30.835937 43.296875v10.613281c0 8.269531-6.703125 14.972657-14.976563 14.972657zm0 0" fill="#878477"/><path d="m286.039062 331.792969c-3.941406 0-7.804687-1.597657-10.589843-4.382813-2.785157-2.785156-4.382813-6.648437-4.382813-10.59375 0-3.941406 1.597656-7.796875 4.382813-10.582031 2.785156-2.785156 6.648437-4.390625 10.589843-4.390625 3.945313 0 7.800782 1.605469 10.582032 4.390625 2.796875 2.785156 4.394531 6.640625 4.394531 10.582031 0 3.945313-1.597656 7.808594-4.394531 10.59375-2.785156 2.785156-6.636719 4.382813-10.582032 4.382813zm0 0" fill="#878477"/><g fill="#4c4a40"><path d="m287.246094 157.238281v29.980469c8.179687.621094 14.652344 7.460938 14.652344 15.796875s-6.472657 15.175781-14.652344 15.800781v53.023438c7.703125-.617188 13.765625-7.054688 13.765625-14.914063v-10.613281c17.929687-6.21875 30.835937-23.277344 30.835937-43.296875 0-24.851563-19.898437-45.132813-44.601562-45.777344zm0 0"/><path d="m287.246094 301.90625v29.824219c3.515625-.289063 6.875-1.820313 9.375-4.320313 2.796875-2.785156 4.394531-6.648437 4.394531-10.59375 0-3.941406-1.597656-7.796875-4.394531-10.582031-2.5-2.5-5.859375-4.039063-9.375-4.328125zm0 0"/></g></svg>