<svg height="512" viewBox="0 0 58 58" width="512" xmlns="http://www.w3.org/2000/svg"><g id="Page-1" fill="none" fill-rule="evenodd"><g id="026---Snowdrop" fill-rule="nonzero"><path id="Shape" d="m45.683 4.019c-.967788.16373848-1.677803.99947215-1.683 1.981v7h6v-7c-.0032948-1.10320187-.8967981-1.9967052-2-2z" fill="#65ddb9"/><path id="Shape" d="m14.121 45.006c1.655-33.206 22.716-39.755 32.379-41.006 1.0990467-.14083261 1.8758326-1.14595335 1.735-2.245s-1.1459533-1.87583261-2.245-1.735c-9.448 1.214-28.7 6.915-34.415 32.887z" fill="#46b29d"/><path id="Shape" d="m52.008 32c-.579348 2.6791274-1.7780134 5.1853655-3.5 7.318-.381967.4337668-.9320273.6823218-1.51.6823218s-1.128033-.248555-1.51-.6823218c-1.7005676-2.1455536-2.8955273-4.6469023-3.496-7.318-.992-4 5.008-8 5.008-8s6.015 3 5.008 8z" fill="#95a5a5"/><path id="Shape" d="m47.98 12c1.8 12.486-1.708 19.664-4.85 23.42-.6429634.7798711-1.3522821 1.5025731-2.12 2.16-.4875084.4169729-1.1454471.5747864-1.76906.4243274-.6236128-.1504589-1.1372042-.5909273-1.38094-1.1843274-1.3215762-3.4503369-1.9535066-7.1264049-1.86-10.82 0-12 8-14 8-14z" fill="#d1d4d1"/><path id="Shape" d="m11.506 57.575c-4.62639042-6.2417199-7.90753103-13.3753745-9.636-20.95-1.47289682-7.6353443-1.35169466-15.4927172.356-23.079.07482264-.3836991.37116418-.6858582.75333634-.7681254.38217216-.0822671.77659212.0711974 1.00266366.3901254 3.6721558 4.981603 6.5185578 10.5217885 8.43 16.408.4808113 1.4954307.8836865 3.0148075 1.207 4.552.5590723 2.7190875.8955202 5.4792313 1.006 8.253v.01z" fill="#14a085"/><path id="Shape" d="m12.959 52.71c-.5069326-.0006333-.9331962-.3804892-.992-.884-1.036-8.852-5.867-24.371-5.921-24.526-.10717969-.3408314-.02438643-.7129522.21719236-.9761883.24157879-.263236.60524155-.3775953.95400002-.3.34875847.0775954.62962795.3353569.73680762.6761883.2.643 4.941 15.854 6 24.893.0639227.5483784-.3286533 1.0448058-.877 1.109-.0391235.0051703-.0785367.0078423-.118.008z" fill="#33907c"/><path id="Shape" d="m50 12s8 2 8 14c.0927421 3.6943691-.53986 7.3710712-1.862 10.822-.2440103.5923398-.7570092 1.0319406-1.3797376 1.1823294s-1.2798125-.0066371-1.7672624-.4223294c-3.278-2.791-9.2-10.121-6.991-25.582z" fill="#ecf0f1"/><path id="Shape" d="m29.31 26.81c-.2120038 6.1095951-1.7653763 12.0977607-4.55 17.54-2.8519009 5.1128297-6.7541615 9.5637925-11.45 13.06-.21.16-.41.3-.59.43-.2589975.185131-.6007305.2068773-.8811056.0560695-.280375-.1508078-.4505983-.4479246-.4388944-.7660695 0-.12.01-.25.01-.38.2743296-5.9748107 1.8222222-11.8220263 4.54-17.15 2.9757403-5.3277938 7.0860234-9.9364999 12.04-13.5.2593209-.1834726.6001544-.2043338.8799152-.0538564s.4502268.4463557.4400848.7638564z" fill="#26b99a"/><path id="Shape" d="m21.47 41.5c-3.62 5.06-6.71 12.25-8.16 15.91-.21.16-.41.3-.59.43-.2589975.185131-.6007305.2068773-.8811056.0560695-.280375-.1508078-.4505983-.4479246-.4388944-.7660695 0-.12.01-.25.01-.38 1.48-3.72 4.67-11.15 8.43-16.42.3230866-.4501121.9498879-.5530866 1.4-.23s.5530866.9498879.23 1.4z" fill="#14a085"/></g></g></svg>