<svg id="Capa_1" enable-background="new 0 0 512 512" height="512" viewBox="0 0 512 512" width="512" xmlns="http://www.w3.org/2000/svg"><g><path d="m481.531 81.302v120.65c0 108.985-56.505 210.101-147.464 263.89l-78.067 46.158-78.066-46.159c-90.96-53.788-147.465-154.904-147.465-263.889v-120.65l14.401-.549c35.573-1.378 63.785-30.35 64.225-65.962l.19-14.791h293.43l.19 14.79c.439 35.613 28.652 64.584 64.225 65.962z" fill="#79d5fa"/><path d="m481.531 81.302v120.65c0 108.985-56.505 210.101-147.464 263.89l-78.067 46.158v-512h146.715l.19 14.79c.439 35.613 28.652 64.584 64.225 65.962z" fill="#4bbbf0"/><ellipse cx="256" cy="234.898" fill="#ff4945" rx="136.029" ry="136.029" transform="matrix(.707 -.707 .707 .707 -91.117 249.819)"/><path d="m392.029 234.898c0 75.01-61.019 136.029-136.029 136.029v-272.058c75.01 0 136.029 61.019 136.029 136.029z" fill="#ff155d"/><path d="m322.032 219.918v29.96h-51.052v51.052h-29.96v-51.052h-51.052v-29.96h51.052v-51.052h29.96v51.052z" fill="#fff"/><path d="m322.032 219.918v29.96h-51.052v51.052h-14.98v-132.064h14.98v51.052z" fill="#ebdfd9"/></g></svg>