<svg id="FillOutline" height="512" viewBox="0 0 512 512" width="512" xmlns="http://www.w3.org/2000/svg"><circle cx="72" cy="40" fill="#798b9b" r="16"/><path d="m88 120h400v288h-400z" fill="#d7e6eb"/><path d="m333.537 241.232a36 36 0 0 0 -45.537 22.768 36 36 0 0 1 -68.32-22.72 72 72 0 1 0 136.64 45.44 36 36 0 0 0 -22.783-45.488z" fill="#0093ba"/><path d="m288 192a72.015 72.015 0 0 0 -68.32 49.28 36 36 0 0 0 68.32 22.72 36 36 0 0 1 68.32 22.72 72 72 0 0 0 -68.32-94.72z" fill="#ef5249"/><path d="m56 88h32v408h-32z" fill="#798b9b"/><path d="m56 88h32v32h-32z" fill="#57646f"/><path d="m488 112h-392v-24a8 8 0 0 0 -8-8h-8v-17.376a24 24 0 1 0 -16 0v17.376h-8a8 8 0 0 0 -8 8v408h16v-368h16v368h16v-80h392a8 8 0 0 0 8-8v-288a8 8 0 0 0 -8-8zm-416-80a8 8 0 1 1 -8 8 8.009 8.009 0 0 1 8-8zm-8 80v-16h16v16zm416 288h-384v-272h384z"/><path d="m115.216 180h56v15.999h-56z" transform="matrix(.5 -.866 .866 .5 -91.206 218.022)"/><path d="m136 192h56v15.999h-56z" transform="matrix(.5 -.866 .866 .5 -91.205 242.027)"/><path d="m156.784 204h56v15.999h-56z" transform="matrix(.5 -.866 .866 .5 -91.205 266.027)"/><path d="m391.216 213.856h15.999v24h-15.999z" transform="matrix(.866 -.5 .5 .866 -59.443 229.866)"/><path d="m375.216 186.144h15.999v24h-15.999z" transform="matrix(.866 -.5 .5 .866 -47.731 218.154)"/><path d="m432.785 189.856h15.999v24h-15.999z" transform="matrix(.866 -.5 .5 .866 -41.873 247.45)"/><path d="m416.785 162.144h15.999v24h-15.999z" transform="matrix(.866 -.5 .5 .866 -30.162 235.722)"/><path d="m404 172h15.999v56h-15.999z" transform="matrix(.866 -.5 .5 .866 -44.802 232.796)"/><path d="m176.785 288h15.999v56h-15.999z" transform="matrix(.866 -.5 .5 .866 -133.244 134.729)"/><path d="m164 329.856h15.999v24h-15.999z" transform="matrix(.866 -.5 .5 .866 -147.884 131.8)"/><path d="m148 302.144h15.999v24h-15.999z" transform="matrix(.866 -.5 .5 .866 -136.178 120.096)"/><path d="m135.216 312h15.999v56h-15.999z" transform="matrix(.866 -.5 .5 .866 -150.813 117.16)"/><path d="m412.784 345.857h24v15.999h-24z" transform="matrix(.5 -.866 .866 .5 -94.062 544.787)"/><path d="m428.784 318.144h24v15.999h-24z" transform="matrix(.5 -.866 .866 .5 -62.063 544.787)"/><path d="m371.216 321.857h24v15.999h-24z" transform="matrix(.5 -.866 .866 .5 -94.061 496.789)"/><path d="m387.216 294.144h24v15.999h-24z" transform="matrix(.5 -.866 .866 .5 -62.056 496.804)"/><path d="m408 306.144h24v15.999h-24z" transform="matrix(.5 -.866 .866 .5 -62.056 520.803)"/><path d="m392 333.857h24v15.999h-24z" transform="matrix(.5 -.866 .866 .5 -94.056 520.803)"/><path d="m288 344a80.124 80.124 0 0 0 75.879-54.707h.017c.061-.183.109-.368.168-.552a79.986 79.986 0 0 0 -151.943-50.039h-.017c-.061.183-.109.368-.168.552a79.967 79.967 0 0 0 76.064 104.746zm0-16a64.1 64.1 0 0 1 -58.926-39.032 43.978 43.978 0 0 0 66.516-22.438 28 28 0 0 1 53.256 17.282 64.1 64.1 0 0 1 -60.846 44.188zm0-128a64.1 64.1 0 0 1 58.926 39.032 43.972 43.972 0 0 0 -66.516 22.438 28 28 0 0 1 -53.256-17.282 64.1 64.1 0 0 1 60.846-44.188z"/></svg>