<svg id="mask-male" enable-background="new 0 0 300 300" height="512" viewBox="0 0 300 300" width="512" xmlns="http://www.w3.org/2000/svg"><g><circle cx="118.809" cy="133.188" fill="#efefd2" r="92"/><path d="m60.809 81.188c-7.719 0-14-6.281-14-14s6.281-14 14-14 14 6.281 14 14-6.282 14-14 14zm0-20c-3.309 0-6 2.691-6 6s2.691 6 6 6 6-2.691 6-6-2.692-6-6-6z" fill="#4c241d"/><circle cx="76.809" cy="103.188" fill="#4c241d" r="4.529"/><g><path d="m214.809 269.188h-144v-32.902c0-14.82 8.534-28.25 21.776-34.269l50.224-22.829 50.224 22.829c13.242 6.019 21.776 19.449 21.776 34.269z" fill="#bf7e68"/><path d="m214.809 273.188h-144c-2.211 0-4-1.791-4-4v-32.902c0-16.369 9.469-31.25 24.121-37.91l50.223-22.828c1.055-.48 2.258-.48 3.312 0l50.223 22.83c14.652 6.658 24.121 21.539 24.121 37.908v32.902c0 2.209-1.789 4-4 4zm-140-8h136v-28.902c0-13.24-7.629-25.262-19.434-30.625l-48.566-22.078-48.566 22.076c-11.805 5.365-19.434 17.387-19.434 30.627z" fill="#4c241d"/></g><g><path d="m142.809 205.188c-8.837 0-16-7.163-16-16v-8h32v8c0 8.837-7.164 16-16 16z" fill="#e7d1c4"/><path d="m142.809 209.188c-11.027 0-20-8.973-20-20v-8c0-2.209 1.789-4 4-4h32c2.211 0 4 1.791 4 4v8c0 11.028-8.973 20-20 20zm-12-24v4c0 6.617 5.383 12 12 12s12-5.383 12-12v-4z" fill="#4c241d"/></g><g><path d="m89.55 141.434c3.217 2.171 5.98 2.017 8.431 1.192.458 2.235 1.065 4.422 1.785 6.562h89.846c.757-2.152 1.395-4.354 1.885-6.605 2.441.861 5.222 1.011 8.371-.95 2.549-1.588 4.495-4.194 4.862-7.175.75-6.09-3.98-11.27-9.921-11.27-.294 0-.335-2.941-.288-6.301.083-5.822-3.813-10.999-9.466-12.394-27.643-6.821-57.325-5.547-84.267 2.727-3.531 1.084-5.848 4.473-5.744 8.166.105 3.746.133 7.802-.236 7.802-5.644 0-10.196 4.676-9.993 10.365.114 3.199 2.081 6.091 4.735 7.881z" fill="#e7d1c4"/><path d="m189.613 153.188h-89.847c-1.719 0-3.246-1.098-3.793-2.727-.367-1.098-.703-2.191-1.004-3.271-2.496.061-5.176-.768-7.652-2.439-3.918-2.641-6.348-6.773-6.496-11.057-.137-3.836 1.254-7.469 3.914-10.227 1.781-1.848 3.973-3.139 6.379-3.791 0-.979-.016-2.326-.07-4.176-.152-5.531 3.375-10.508 8.574-12.104 28.062-8.619 58.754-9.613 86.395-2.787 7.48 1.848 12.621 8.564 12.508 16.336-.016 1.139-.02 2.035-.012 2.74 2.602.713 4.969 2.17 6.793 4.23 2.652 3.002 3.895 7.021 3.398 11.029-.492 4.002-3.004 7.771-6.719 10.084-2.414 1.504-4.867 2.238-7.527 2.15-.316 1.104-.676 2.215-1.066 3.33-.56 1.606-2.076 2.68-3.775 2.68zm-86.894-8h83.984c.344-1.17.641-2.324.883-3.453.246-1.123.957-2.086 1.961-2.645 1-.562 2.195-.664 3.281-.279 1.816.645 3.242.477 4.926-.572s2.805-2.645 3.008-4.27c.215-1.76-.301-3.447-1.457-4.754-1.137-1.289-2.777-2.027-4.496-2.027-1.07 0-2.137-.449-2.887-1.211-1.379-1.396-1.488-2.873-1.402-9.146.059-3.965-2.645-7.52-6.426-8.455-26.258-6.477-55.434-5.529-82.129 2.67-1.777.545-2.977 2.285-2.922 4.232.23 8.275-.023 9.342-1.32 10.676-.754.775-1.832 1.234-2.914 1.234-1.645 0-3.176.65-4.316 1.834-1.141 1.182-1.738 2.74-1.68 4.389.062 1.707 1.199 3.512 2.973 4.707.004 0 .004 0 .004.002 1.945 1.312 3.328 1.242 4.918.715 1.082-.365 2.273-.248 3.27.324.992.572 1.691 1.543 1.922 2.666.225 1.094.498 2.219.819 3.363z" fill="#4c241d"/></g><g><path d="m194.809 104.678c0-63.49-100-59.49-99.78-8.15.025 5.763.146 12.021.087 16.344 10.93.374 21.141-3.243 27.89-10.021 11.638 22.604 44.081 31.871 71.803 10.216 0-8.389 0-4.776 0-8.389z" fill="#6b4f5b"/><path d="m161.461 129.354c-3.625 0-7.25-.387-10.832-1.174-11.961-2.625-22.156-9.51-28.637-19.184-7.246 5.391-16.844 8.234-27.016 7.873-2.176-.074-3.895-1.877-3.863-4.057.039-2.777.004-6.361-.035-10.096l-.051-6.17c-.062-14.689 7.359-27.109 20.895-34.975 18.453-10.725 44.281-10.768 62.797-.109 15.535 8.939 24.09 24.285 24.09 43.215v8.389c0 1.23-.566 2.395-1.539 3.152-11.055 8.638-23.461 13.136-35.809 13.136zm-38.457-30.503c.203 0 .41.016.613.047 1.262.197 2.355.984 2.941 2.121 5.051 9.809 14.449 16.859 25.785 19.348 12.855 2.826 26.445-.477 38.465-9.287v-6.4c0-20.438-10.918-31.01-20.078-36.281-15.906-9.152-38.945-9.115-54.789.092-7.75 4.504-16.977 13.023-16.914 28.021l.051 6.127c.023 2.15.043 4.254.051 6.186 8.371-.512 15.891-3.623 21.039-8.795.758-.761 1.781-1.179 2.836-1.179zm71.805 14.216h.039z" fill="#4c241d"/></g><g fill="#4c241d"><path d="m98.809 273.188c-2.211 0-4-1.791-4-4v-20c0-2.209 1.789-4 4-4s4 1.791 4 4v20c0 2.209-1.789 4-4 4z"/><path d="m190.809 273.188c-2.211 0-4-1.791-4-4v-20c0-2.209 1.789-4 4-4s4 1.791 4 4v20c0 2.209-1.789 4-4 4z"/><circle cx="142.809" cy="229.188" r="4"/><circle cx="142.809" cy="249.188" r="4"/></g><g><path d="m43.219 191.957c-8.383-2.794-12.914-11.855-10.119-20.239l5.06-15.179c2.794-8.383 11.855-12.914 20.239-10.119 8.383 2.794 12.914 11.855 10.119 20.239l-5.06 15.179c-2.795 8.383-11.856 12.913-20.239 10.119z" fill="#e66353"/><path d="m48.297 196.788c-2.129 0-4.266-.344-6.344-1.037-5.066-1.689-9.176-5.25-11.562-10.029-2.391-4.779-2.773-10.201-1.082-15.27l5.059-15.178c1.688-5.066 5.25-9.174 10.027-11.562 4.781-2.389 10.203-2.779 15.27-1.086 5.066 1.689 9.176 5.25 11.562 10.029 2.391 4.779 2.773 10.201 1.082 15.27l-5.059 15.178c-1.688 5.066-5.25 9.174-10.027 11.562-2.821 1.41-5.864 2.123-8.926 2.123zm5.031-47.195c-1.84 0-3.664.428-5.355 1.273-2.867 1.434-5.004 3.898-6.02 6.938l-5.059 15.18c-1.012 3.041-.781 6.295.652 9.16 1.434 2.867 3.895 5.004 6.938 6.018 3.035 1.012 6.293.779 9.16-.65 2.867-1.434 5.004-3.898 6.02-6.938l5.059-15.18c1.012-3.041.781-6.295-.652-9.16-1.434-2.867-3.895-5.004-6.938-6.018-1.246-.416-2.528-.623-3.805-.623z" fill="#4c241d"/></g><circle cx="56.404" cy="161.145" fill="#4c241d" r="4.276"/><circle cx="48.404" cy="173.145" fill="#4c241d" r="4.276"/><g><path d="m254.263 219.551c-6.761 5.69-16.854 4.822-22.544-1.939l-10.303-12.242c-5.69-6.761-4.822-16.854 1.939-22.544 6.761-5.69 16.854-4.822 22.544 1.939l10.303 12.242c5.689 6.76 4.821 16.854-1.939 22.544z" fill="#d9be6f"/><path d="m243.977 227.3c-5.703 0-11.367-2.418-15.316-7.111l-10.305-12.242c-7.102-8.438-6.012-21.08 2.426-28.182 8.434-7.098 21.078-6.014 28.176 2.424l10.305 12.242c7.102 8.438 6.012 21.08-2.426 28.182-3.743 3.148-8.314 4.687-12.86 4.687zm10.285-7.748h.039zm-20.614-36.479c-2.73 0-5.473.924-7.719 2.812-5.062 4.262-5.715 11.846-1.453 16.908l10.301 12.242c4.27 5.068 11.855 5.709 16.91 1.455 5.062-4.262 5.715-11.848 1.453-16.908l-10.301-12.242c-2.37-2.816-5.773-4.267-9.191-4.267z" fill="#4c241d"/></g><circle cx="234.871" cy="192.216" fill="#4c241d" r="4.276"/><circle cx="240.927" cy="205.305" fill="#4c241d" r="4.276"/><g><circle cx="234.788" cy="65.212" fill="#fc8c29" r="34.402"/><path d="m234.789 103.614c-.008 0-.008 0-.012 0-21.172-.006-38.395-17.238-38.391-38.412.004-10.258 4-19.9 11.254-27.15 7.254-7.248 16.891-11.24 27.145-11.24h.012c21.176.004 38.398 17.236 38.395 38.41v.002c-.008 21.17-17.239 38.39-38.403 38.39zm-.004-68.802c-8.117 0-15.746 3.16-21.488 8.898-5.746 5.74-8.91 13.373-8.91 21.492-.004 16.764 13.629 30.406 30.391 30.412h.012c16.758 0 30.395-13.633 30.402-30.395 0-8.119-3.16-15.756-8.898-21.498-5.742-5.744-13.375-8.908-21.496-8.91-.005.001-.009.001-.013.001zm34.406 30.41h.039z" fill="#4c241d"/></g><path d="m234.809 73.188c-2.211 0-4-1.791-4-4v-24c0-2.209 1.789-4 4-4s4 1.791 4 4v24c0 2.209-1.789 4-4 4z" fill="#4c241d"/><circle cx="234.809" cy="81.188" fill="#4c241d" r="4"/><g><path d="m162.809 141.188h-36c0 4.418-3.582 8-8 8h-19.043c5.514 16.396 18.476 29.706 35.64 35.231 5.564 1.791 11.582 1.621 17.143-.182l1.775-.575c16.835-5.457 29.646-18.43 35.288-34.474h-18.803c-4.419 0-8-3.581-8-8z" fill="#fff"/><path d="m143.562 189.69c-3.195 0-6.352-.488-9.383-1.465-17.906-5.764-32.191-19.881-38.207-37.762-.41-1.221-.207-2.564.543-3.609.754-1.047 1.961-1.666 3.25-1.666h19.043c2.207 0 4-1.795 4-4 0-2.209 1.789-4 4-4h36c2.211 0 4 1.791 4 4 0 2.205 1.793 4 4 4h18.805c1.297 0 2.516.629 3.266 1.688s.938 2.416.508 3.641c-6.141 17.449-20.281 31.264-37.828 36.951l-1.777.574c-3.384 1.098-6.825 1.648-10.22 1.648zm-37.898-36.502c6.027 12.959 17.273 23.014 30.969 27.424 4.574 1.467 9.789 1.402 14.684-.18l1.777-.574c13.355-4.33 24.43-14.102 30.527-26.67h-12.812c-5.215 0-9.664-3.344-11.316-8h-29.367c-1.652 4.656-6.102 8-11.316 8z" fill="#4c241d"/></g></g></svg>