<?xml version="1.0" encoding="iso-8859-1"?>
<!-- Generator: Adobe Illustrator 19.0.0, SVG Export Plug-In . SVG Version: 6.00 Build 0)  -->
<svg version="1.1" id="Capa_1" xmlns="http://www.w3.org/2000/svg" xmlns:xlink="http://www.w3.org/1999/xlink" x="0px" y="0px"
	 viewBox="0 0 509.876 509.876" style="enable-background:new 0 0 509.876 509.876;" xml:space="preserve">
<g>
	<path style="fill:#CED6E0;" d="M472.543,303.975l-1.067-1.067c0,0,6.4-9.6,10.667-16c4.267-6.4,21.333-26.667,26.667-32
		l1.067,1.067c-6.4,5.333-23.467,25.6-26.667,30.933C478.943,293.308,472.543,303.975,472.543,303.975z"/>
	<path style="fill:#CED6E0;" d="M472.543,299.708l-2.133-1.067c0-1.067,7.467-18.133,11.733-25.6c4.267-6.4,24.533-34.133,25.6-35.2
		l1.067,1.067c0,0-21.333,27.733-24.533,35.2C480.01,280.508,472.543,299.708,472.543,299.708z"/>
	<path style="fill:#CED6E0;" d="M471.476,294.375h-2.133c0,0,6.4-18.133,11.733-29.867c5.333-10.667,22.4-40.533,23.467-40.533
		l2.133,1.067c0,0-18.133,29.867-23.467,40.533S471.476,294.375,471.476,294.375z"/>
	<path style="fill:#CED6E0;" d="M468.276,293.308h-2.133c0,0,5.333-21.333,9.6-33.067c4.267-11.733,23.467-42.667,24.533-43.733
		l1.067,1.067c0,0-20.267,32-24.533,43.733C474.676,270.908,468.276,292.242,468.276,293.308z"/>
	<path style="fill:#CED6E0;" d="M467.21,289.042h-2.133c0,0,3.2-20.267,9.6-39.467c6.4-18.133,19.2-46.933,19.2-46.933l2.133,1.067
		c0,0-12.8,28.8-19.2,46.933C470.41,267.708,467.21,289.042,467.21,289.042z"/>
	<path style="fill:#CED6E0;" d="M462.943,284.775h-2.133c0,0,5.333-24.533,7.467-34.133c2.133-10.667,18.133-49.067,19.2-51.2
		l2.133,1.067c0,0-17.067,40.533-19.2,51.2C468.276,260.242,462.943,284.775,462.943,284.775z"/>
	<path style="fill:#CED6E0;" d="M385.076,319.975c0,4.267-1.067,7.467-2.133,10.667c-4.267,12.8-24.533,68.267-24.533,68.267
		c-1.067,1.067,0,3.2,2.133,3.2l0,0c1.067,1.067,3.2,0,3.2-1.067c1.067-1.067,20.267-56.533,24.533-69.333
		c1.067-4.267,2.133-8.533,2.133-12.8h-5.333V319.975z"/>
</g>
<path style="fill:#ADB3BA;" d="M420.276,353.042c-29.867,0-53.333-20.267-53.333-44.8s24.533-44.8,53.333-44.8
	c29.867,0,53.333,20.267,53.333,44.8S450.143,353.042,420.276,353.042z M420.276,267.708c-26.667,0-49.067,18.133-49.067,39.467
	s21.333,39.467,49.067,39.467c27.733,0,49.067-17.067,49.067-38.4S446.943,267.708,420.276,267.708z"/>
<path style="fill:#CED6E0;" d="M462.943,394.642L462.943,394.642c-1.067,0-3.2-1.067-3.2-3.2c0-1.067,0-38.4,1.067-52.267
	c1.067-14.933,9.6-30.933,22.4-40.533c11.733-9.6,16-18.133,20.267-32c2.133-6.4,2.133-19.2,0-34.133
	c-2.133-14.933-7.467-26.667-13.867-29.867c-3.2-2.133-6.4-2.133-9.6-1.067c-4.267,1.067-10.667,7.467-17.067,26.667
	c-4.267,12.8-19.2,58.667-19.2,58.667c0,1.067-2.133,2.133-3.2,2.133s-2.133-2.133-2.133-3.2c0,0,14.933-45.867,19.2-58.667
	c5.333-17.067,12.8-26.667,20.267-29.867c4.267-2.133,9.6-1.067,13.867,2.133c18.133,10.667,20.267,55.467,16,70.4
	c-4.267,14.933-9.6,24.533-22.4,35.2c-11.733,9.6-19.2,23.467-20.267,36.267c-1.067,13.867-1.067,51.2-1.067,52.267
	C466.143,392.508,465.076,394.642,462.943,394.642z"/>
<ellipse style="fill:#66C6B9;" cx="418.143" cy="300.775" rx="52.267" ry="42.667"/>
<path style="fill:#415A6B;" d="M353.076,342.375c0,0-4.267,3.2-10.667,7.467c-6.4,4.267-11.733,8.533-11.733,11.733
	c0,4.267,0,7.467,8.533,8.533c8.533,1.067,12.8,2.133,17.067-3.2c4.267-5.333,11.733-12.8,13.867-13.867
	c2.133-1.067,2.133-1.067,2.133-1.067l1.067,8.533h4.267c0,0,7.467-17.067,6.4-23.467c-1.067-6.4-4.267-7.467-7.467-6.4
	C372.276,330.642,353.076,342.375,353.076,342.375z"/>
<ellipse style="fill:#F3705A;" cx="266.676" cy="335.975" rx="50.133" ry="39.467"/>
<path style="fill:#F7B64C;" d="M342.41,353.042c0,0,1.067,5.333,3.2,7.467c3.2,2.133,8.533,1.067,10.667-1.067
	c2.133-2.133,8.533-8.533,12.8-11.733c4.267-3.2,9.6-8.533,9.6-12.8c0-4.267-5.333-8.533-5.333-8.533l-21.333-28.8l36.267-9.6
	l10.667-5.333l-14.933-10.667l-72.533,14.933c0,0-20.267,12.8-6.4,24.533c13.867,11.733,28.8,11.733,36.267,17.067
	c8.533,5.333,12.8,9.6,12.8,12.8s-4.267,4.267-7.467,7.467C342.41,350.908,342.41,350.908,342.41,353.042z"/>
<g>
	<path style="fill:#415A6B;" d="M381.876,294.375l-10.667-4.267c0,0-6.4-9.6-11.733-12.8l30.933-8.533l7.467,21.333"/>
	<path style="fill:#415A6B;" d="M270.943,386.108c0,0-3.2,0-12.8,5.333c-8.533,5.333-10.667,7.467-10.667,10.667
		c0,2.133,5.333,9.6,12.8,9.6c7.467,0,14.933-1.067,18.133-4.267c3.2-3.2,14.933-11.733,14.933-11.733l1.067,3.2
		c0,0,3.2-1.067,5.333-3.2c2.133-2.133,2.133-5.333,3.2-6.4s4.267-4.267,4.267-7.467c0-3.2-1.067-5.333-4.267-7.467
		C299.743,373.308,270.943,386.108,270.943,386.108z"/>
</g>
<g>
	<path style="fill:#CED6E0;" d="M59.743,359.442c0,2.133-6.4,2.133-6.4,0l-2.133-35.2h5.333L59.743,359.442z"/>
	<path style="fill:#CED6E0;" d="M132.276,404.242c0,3.2-5.333,3.2-5.333,0l-4.267-54.4h5.333L132.276,404.242z"/>
</g>
<path style="fill:#FFD15C;" d="M270.943,386.108c0,0-7.467,3.2-8.533,6.4c-1.067,3.2,0,8.533,3.2,11.733
	c3.2,2.133,5.333,3.2,9.6,2.133c3.2-2.133,8.533-6.4,14.933-9.6s10.667-10.667,10.667-12.8c0-2.133,1.067-5.333,1.067-5.333
	s19.2-19.2,23.467-26.667c4.267-8.533,5.333-23.467,5.333-23.467c0-1.067,0-1.067,0-1.067s10.667-2.133,18.133-2.133
	c6.4,0,41.6,4.267,48,4.267s7.467-12.8,7.467-12.8l-20.267-26.667c0,0-30.933,3.2-40.533,3.2s-19.2-1.067-26.667,0
	c-7.467,2.133-12.8,9.6-14.933,21.333c-2.133,10.667-3.2,22.4-6.4,32c-3.2,8.533-6.4,19.2-10.667,24.533
	c-4.267,5.333-7.467,9.6-8.533,10.667S270.943,385.042,270.943,386.108z"/>
<path style="fill:#415A6B;" d="M371.21,290.108c0,0,11.733,18.133,14.933,29.867c3.2,10.667,3.2,10.667,3.2,10.667
	s30.933,4.267,45.867-4.267c14.933-8.533,22.4-30.933,19.2-42.667c-3.2-12.8-9.6-22.4-9.6-22.4s0,16-12.8,21.333
	c-12.8,6.4-33.067-6.4-33.067-6.4S377.61,290.108,371.21,290.108z"/>
<path style="fill:#66C6B9;" d="M22.41,257.042c3.2,26.667,13.867,65.067,18.133,75.733s67.2,33.067,86.4,26.667
	s5.333-13.867,5.333-13.867L22.41,257.042z"/>
<path style="fill:#344A5E;" d="M137.61,242.108c0,0,43.733,55.467,61.867,61.867c18.133,6.4-12.8,87.467-12.8,87.467l-28.8-13.867
	c0,0-10.667-45.867-37.333-67.2c-26.667-21.333-32-34.133-32-34.133C93.876,242.108,107.743,226.108,137.61,242.108z"/>
<path style="fill:#CED6E0;" d="M157.876,404.242l5.333-12.8l20.267,4.267l4.267,5.333l5.333,17.067c0,0-18.133,3.2-21.333,1.067
	C166.41,417.042,157.876,404.242,157.876,404.242z"/>
<path style="fill:#415A6B;" d="M157.876,406.375c0,0-2.133,4.267-1.067,6.4c1.067,2.133,10.667,10.667,10.667,10.667l1.067-1.067
	c0,0,6.4,8.533,8.533,11.733c2.133,3.2,5.333,10.667,21.333,12.8c16,2.133,20.267,1.067,22.4-1.067
	c2.133-2.133,4.267-4.267,1.067-9.6c-3.2-5.333-23.467-9.6-23.467-9.6s-21.333-5.333-27.733-10.667
	C164.276,410.642,157.876,406.375,157.876,406.375z"/>
<path style="fill:#344A5E;" d="M160.01,401.042c0,0,1.067,9.6,5.333,11.733c4.267,2.133,8.533,3.2,11.733,0
	c3.2-3.2,12.8-7.467,12.8-7.467s6.4,8.533,10.667,10.667c5.333,2.133,13.867,13.867,17.067,17.067c3.2,3.2,4.267,6.4,3.2,8.533
	c-1.067,2.133-3.2,5.333-13.867,5.333c-10.667-1.067-23.467-2.133-27.733-9.6s-9.6-12.8-13.867-18.133
	c-4.267-5.333-14.933-8.533-7.467-21.333L160.01,401.042z"/>
<path style="fill:#415A6B;" d="M83.21,332.775c0,0,18.133,18.133,49.067,30.933c0,0,4.267,6.4,6.4,8.533
	c2.133,2.133,18.133,26.667,21.333,28.8c2.133,2.133,11.733,4.267,21.333,6.4c9.6,2.133,19.2-4.267,19.2-4.267
	s-14.933-23.467-19.2-32c-4.267-7.467,3.2-19.2-7.467-29.867c-10.667-10.667-10.667-10.667-10.667-10.667l-49.067-41.6
	L83.21,332.775z"/>
<ellipse style="fill:#344A5E;" cx="130.143" cy="216.508" rx="21.333" ry="35.2"/>
<path style="fill:#E84534;" d="M284.81,335.975c0,7.467-7.467,13.867-18.133,13.867c-9.6,0-18.133-6.4-18.133-13.867
	c0-1.067,0-2.133,1.067-3.2c4.267-13.867,7.467-28.8,7.467-43.733v-32h19.2v30.933c0,14.933,3.2,29.867,7.467,43.733
	C284.81,333.842,284.81,334.908,284.81,335.975z"/>
<path style="fill:#F05540;" d="M384.01,212.242v14.933c0,51.2-52.267,93.867-117.333,93.867s-117.333-41.6-117.333-93.867v-14.933
	h1.067c9.6-44.8,57.6-77.867,116.267-77.867s106.667,34.133,116.267,77.867H384.01z"/>
<ellipse style="fill:#F3705A;" cx="266.676" cy="212.242" rx="117.333" ry="93.867"/>
<polygon style="fill:#415A6B;" points="257.076,235.708 337.076,282.642 375.476,239.975 301.876,206.908 "/>
<polygon style="fill:#FFFFFF;" points="369.076,241.042 337.076,277.308 268.81,238.908 308.276,213.308 "/>
<g>
	<polygon style="fill:#CED6E0;" points="318.943,223.975 291.21,245.308 294.41,246.375 322.143,226.108 	"/>
	<polygon style="fill:#CED6E0;" points="331.743,230.375 305.076,252.775 308.276,254.908 334.943,231.442 	"/>
	<polygon style="fill:#CED6E0;" points="343.476,235.708 318.943,261.308 321.076,262.375 346.676,237.842 	"/>
	<polygon style="fill:#CED6E0;" points="356.276,242.108 332.81,268.775 334.943,270.908 359.476,243.175 	"/>
</g>
<path style="fill:#FFD15C;" d="M316.81,220.775c0,0-3.2,1.067-9.6,1.067c-6.4,0-14.933-1.067-17.067-1.067
	c-2.133,0-3.2,2.133-4.267,3.2c-1.067,1.067-5.333,6.4-5.333,6.4s-1.067,2.133-1.067,3.2c0,2.133,1.067,12.8,1.067,12.8
	s3.2,0,3.2-6.4c0,0,8.533,5.333,9.6,5.333s2.133-1.067,1.067-3.2c0,0,2.133-1.067,1.067-3.2c-2.133-2.133-6.4-4.267-6.4-4.267
	s-1.067-1.067,0-2.133s3.2-2.133,4.267-2.133l2.133,3.2l21.333-6.4V220.775z"/>
<path style="fill:#344A5E;" d="M27.743,147.175c0,0-17.067,25.6-24.533,30.933c0,0,10.667,0,22.4,11.733
	s13.867,58.667,10.667,81.067c-3.2,22.4,3.2,49.067,8.533,57.6s41.6,22.4,58.667,11.733s19.2-34.133,19.2-44.8
	c0-10.667-11.733-51.2-11.733-51.2l-59.733-76.8L27.743,147.175z"/>
<path style="fill:#FFD15C;" d="M116.276,290.108c0,0,8.533,1.067,10.667,2.133s6.4,1.067,8.533,1.067s10.667,4.267,11.733,5.333
	c2.133,1.067,5.333,5.333,5.333,5.333s1.067,6.4-3.2,4.267c0,0,1.067,3.2,0,4.267c-1.067,1.067-3.2,1.067-3.2,1.067
	s1.067,2.133-1.067,4.267c-2.133,1.067-3.2,0-3.2,0s-1.067,2.133-2.133,3.2c-1.067,1.067-4.267-5.333-7.467-7.467
	c-3.2-2.133-16-5.333-20.267-7.467c-3.2-2.133-8.533-5.333-8.533-5.333L116.276,290.108z"/>
<path style="fill:#415A6B;" d="M92.81,121.575v-2.133c0,0,5.333,0,9.6,5.333s5.333,9.6,8.533,11.733
	c3.2,2.133,12.8,13.867,14.933,16c2.133,2.133,3.2,4.267,5.333,5.333s2.133,2.133,3.2,4.267c1.067,1.067,11.733,12.8,17.067,16
	c5.333,3.2,6.4,6.4,9.6,10.667c3.2,5.333,7.467,12.8,7.467,19.2c0,6.4,3.2,37.333,3.2,37.333s-20.267-4.267-24.533,4.267
	c0,0-7.467-19.2-8.533-25.6c-1.067-7.467-1.067-6.4-2.133-9.6c-1.067-3.2-3.2-6.4-3.2-9.6s-12.8-7.467-12.8-7.467L92.81,121.575z"/>
<path style="fill:#344A5E;" d="M70.41,121.575c0,0,20.267-3.2,23.467-2.133c3.2,1.067,9.6,5.333,11.733,12.8
	c2.133,7.467,14.933,36.267,19.2,48c3.2,11.733,3.2,33.067,5.333,37.333c1.067,3.2,32,41.6,34.133,49.067s-12.8,17.067-18.133,16
	c-5.333-1.067-12.8-45.867-12.8-46.933s-18.133-44.8-28.8-66.133s-36.267-42.667-36.267-42.667L70.41,121.575z"/>
<path style="fill:#FFD15C;" d="M148.276,244.242c0,0,1.067,8.533-1.067,12.8c-2.133,4.267-6.4,11.733-6.4,16s-1.067,12.8-1.067,12.8
	v6.4c0,0,4.267,2.133,4.267-2.133c0,0-1.067,6.4,2.133,6.4s4.267-3.2,4.267-4.267c0,0,1.067,2.133,3.2,1.067
	c2.133-1.067,3.2-2.133,3.2-2.133s1.067,1.067,3.2,1.067s2.133-2.133,2.133-2.133s2.133,2.133,4.267-1.067
	s1.067-20.267,1.067-20.267s-1.067-8.533-2.133-11.733c-1.067-4.267-1.067-17.067-1.067-17.067L148.276,244.242z"/>
<path style="fill:#415A6B;" d="M69.343,125.842l11.733,6.4l1.067,6.4l9.6-1.067c0,0,23.467,34.133,27.733,49.067
	c4.267,14.933,12.8,55.467,12.8,55.467s-18.133-40.533-23.467-53.333c-6.4-11.733-24.533-38.4-24.533-38.4L69.343,125.842
	L69.343,125.842L69.343,125.842z"/>
<g>
	<path style="fill:#FFD15C;" d="M28.81,120.508c2.133,4.267,3.2,9.6,2.133,9.6s-5.333-2.133-7.467-7.467
		c-2.133-4.267-3.2-9.6-2.133-9.6C23.476,113.042,26.676,116.242,28.81,120.508z"/>
	<path style="fill:#FFD15C;" d="M69.343,99.175l1.067,3.2c0,0,3.2,11.733,4.267,18.133s-3.2,12.8-3.2,12.8l1.067,25.6l-40.533-3.2
		c0,0-1.067-24.533-1.067-26.667c0-2.133-3.2-7.467-3.2-7.467S12.81,99.175,12.81,94.908s-3.2-9.6,11.733-17.067
		s32-11.733,36.267-6.4C64.01,77.842,69.343,99.175,69.343,99.175z"/>
</g>
<path style="fill:#415A6B;" d="M21.343,114.108l5.333,8.533l0,0c0,0-5.333-8.533-5.333-12.8c0-3.2,1.067-6.4-1.067-8.533
	s-2.133-4.267-2.133-6.4c1.067-2.133,5.333-9.6,8.533-9.6s17.067,1.067,21.333-5.333c4.267-6.4,14.933,4.267,16,7.467
	c1.067,3.2,5.333,14.933,5.333,14.933l0,0c0,0-2.133-9.6-2.133-13.867c0-5.333,1.067-12.8-9.6-20.267s-12.8-3.2-12.8-3.2
	s-11.733-9.6-27.733,4.267S13.876,104.508,21.343,114.108z"/>
<path style="fill:#F7B64C;" d="M72.543,152.508l-1.067-20.267l0,0c0,0-3.2,8.533-11.733,10.667
	c-9.6,1.067-27.733-11.733-27.733-11.733S44.81,150.375,72.543,152.508z"/>
<path style="fill:#CED6E0;" d="M107.743,189.842c5.333,9.6,18.133,40.533,22.4,49.067c-1.067,6.4-5.333,17.067-13.867,22.4
	c-3.2-22.4-74.667-102.4-74.667-102.4l25.6-9.6l1.067-1.067l8.533-5.333l5.333,8.533C83.21,150.375,101.343,177.042,107.743,189.842
	z"/>
<g>
	<path style="fill:#F3F3F3;" d="M72.543,130.108l-1.067,2.133c0,0,1.067,8.533-1.067,14.933c0,0,4.267-1.067,8.533,0
		c3.2,2.133,5.333,6.4,5.333,6.4s1.067-1.067,0-4.267C83.21,146.108,72.543,130.108,72.543,130.108z"/>
	<path style="fill:#F3F3F3;" d="M30.943,133.308c0,0,7.467,10.667,21.333,13.867c13.867,3.2,16,1.067,16,1.067l-4.267,23.467
		l-32-17.067L30.943,133.308z"/>
</g>
<g>
	<path style="fill:#415A6B;" d="M30.943,131.175c0,0-1.067,6.4-2.133,9.6c-1.067,3.2-1.067,4.267-1.067,6.4
		c0,2.133,12.8,23.467,12.8,23.467h9.6l-3.2,9.6c0,0,19.2,16,37.333,33.067s28.8,37.333,28.8,37.333s-4.267-12.8-10.667-24.533
		c-6.4-10.667-21.333-38.4-30.933-49.067C61.876,166.375,35.21,143.975,30.943,131.175z"/>
	<path style="fill:#415A6B;" d="M167.476,202.642h-35.2v1.067c0,3.2,2.133,6.4,3.2,9.6c1.067,3.2,1.067,2.133,2.133,9.6
		c1.067,7.467,8.533,25.6,8.533,25.6c4.267-8.533,24.533-4.267,24.533-4.267s-3.2-30.933-3.2-37.333
		C168.543,205.842,168.543,204.775,167.476,202.642z"/>
	<path style="fill:#415A6B;" d="M3.21,179.175c0,0,11.733-3.2,24.533,10.667c12.8,13.867,20.267,26.667,24.533,36.267
		c4.267,9.6,8.533,18.133,11.733,24.533c3.2,6.4,9.6,12.8,11.733,18.133c2.133,5.333,42.667,19.2,42.667,19.2
		s1.067,14.933-12.8,22.4c0,0-16-3.2-25.6-4.267c-9.6-1.067-12.8-1.067-20.267-4.267c-6.4-3.2-9.6,2.133-19.2-12.8
		s-25.6-35.2-27.733-44.8c-2.133-8.533-11.733-26.667-11.733-34.133C2.143,202.642-3.19,187.708,3.21,179.175z"/>
	<ellipse style="fill:#415A6B;" cx="363.743" cy="148.242" rx="11.733" ry="42.667"/>
</g>
<path style="fill:#FFD15C;" d="M406.41,127.975l-8.533,10.667c0,0,13.867,11.733,22.4,22.4c9.6,10.667,13.867,18.133,14.933,35.2
	c1.067,17.067,4.267,32,7.467,39.467c3.2,8.533,5.333,26.667,4.267,33.067c-1.067,6.4-3.2,7.467-8.533,7.467
	c-5.333,0-25.6,5.333-42.667,4.267c-17.067-1.067-23.467,0-27.733,0c-4.267,0-6.4-1.067-11.733,1.067c-4.267,1.067-16,0-19.2,0
	s-3.2,0-3.2,0s-3.2-3.2,0-5.333c0,0-2.133,0-3.2-1.067s-1.067-4.267,1.067-4.267c0,0-2.133,0-3.2-2.133
	c-1.067-2.133,2.133-3.2,4.267-3.2c0,0-2.133-1.067-1.067-3.2c0-2.133,2.133-2.133,2.133-2.133s-3.2,0-3.2-4.267l5.333-1.067
	c0,0,2.133-1.067,4.267-1.067c2.133,0,9.6,1.067,9.6,1.067s10.667,7.467,12.8,8.533c2.133,1.067,32,0,43.733-1.067
	c10.667-1.067,16-6.4,16-6.4s-6.4-23.467-7.467-27.733c-1.067-4.267-2.133-5.333-2.133-5.333l-20.267,6.4l-21.333,3.2l-5.333-7.467
	c0,0-8.533,3.2-20.267,4.267c-12.8,0-27.733,1.067-32,2.133c-4.267,1.067-4.267,5.333-10.667,5.333c-6.4,1.067-6.4,0-8.533,0
	c-2.133,1.067-5.333,2.133-8.533,3.2c-3.2,0-4.267,0-4.267,0s-2.133-2.133,0-4.267c3.2-2.133,4.267-1.067,7.467-2.133
	c3.2-1.067,4.267-1.067,7.467-3.2s10.667-7.467,14.933-8.533c5.333-1.067,16-5.333,20.267-6.4
	c4.267-1.067,20.267-7.467,21.333-8.533c1.067-2.133,2.133-18.133,2.133-18.133s8.533-20.267,11.733-27.733
	c4.267-6.4,4.267-9.6,4.267-9.6s-14.933-11.733-14.933-25.6s3.2-25.6,11.733-32c8.533-6.4,20.267-14.933,28.8-9.6
	C406.41,89.575,406.41,127.975,406.41,127.975z"/>
<g>
	<path style="fill:#E8EAE9;" d="M434.143,185.575L434.143,185.575c0,0-3.2-11.733-11.733-11.733
		c-8.533-1.067-17.067,4.267-21.333,12.8c-4.267,8.533-8.533,21.333-5.333,27.733c3.2,6.4,17.067,8.533,17.067,8.533l0,0l0,0v1.067
		l0,0l0,0c0,1.067,1.067,2.133,2.133,4.267c1.067,4.267,7.467,27.733,7.467,27.733s-5.333,5.333-16,6.4
		c-5.333,1.067-14.933,1.067-24.533,1.067c-1.067-5.333-3.2-12.8-5.333-16c-3.2-4.267-7.467-17.067-10.667-22.4
		c-1.067-1.067-1.067-2.133-1.067-2.133c-2.133-3.2-7.467-9.6-9.6-16c-1.067-3.2-2.133-6.4-2.133-9.6c0-9.6,14.933-34.133,16-35.2
		l0,0l0,0l0,0c-1.067,2.133-10.667,21.333-9.6,30.933c1.067,10.667,10.667,21.333,13.867,21.333s12.8-10.667,17.067-23.467
		c4.267-12.8,18.133-25.6,22.4-28.8c4.267-2.133,1.067-8.533-1.067-11.733c0-1.067-1.067-1.067-1.067-1.067
		C409.61,149.308,434.143,165.308,434.143,185.575z"/>
	<path style="fill:#E8EAE9;" d="M440.543,276.242c0,0-7.467,11.733-20.267,10.667c-5.333,0-12.8-3.2-19.2-6.4
		c16,0,33.067-4.267,38.4-4.267C439.476,276.242,440.543,276.242,440.543,276.242L440.543,276.242z"/>
</g>
<path style="fill:#415A6B;" d="M397.876,91.708c0,0,6.4,25.6,1.067,43.733s-19.2,42.667-25.6,51.2
	c-5.333,8.533-7.467,34.133-6.4,38.4c0,0,0-6.4,11.733-13.867c11.733-7.467,24.533-26.667,30.933-51.2
	c5.333-24.533,8.533-38.4,8.533-46.933s2.133-29.867-10.667-39.467c-12.8-8.533-35.2-9.6-45.867,13.867
	c-10.667,23.467-13.867,54.4-14.933,68.267c0,13.867,0,35.2-1.067,40.533c0,0,18.133-9.6,14.933-41.6
	c-1.067-10.667-4.267-23.467-4.267-30.933s7.467-22.4,14.933-26.667C378.676,92.775,394.676,88.508,397.876,91.708z"/>
<path style="fill:#FFFFFF;" d="M274.143,211.175l-46.933,40.533c-2.133,1.067-4.267,2.133-6.4,0l-42.667-25.6
	c-2.133-1.067-2.133-3.2-1.067-4.267l46.933-40.533c2.133-1.067,4.267-2.133,6.4,0l42.667,25.6
	C275.21,207.975,275.21,210.108,274.143,211.175z"/>
<g>
	<polygon style="fill:#CED6E0;" points="241.076,196.242 227.21,187.708 226.143,188.775 240.01,197.308 	"/>
	<polygon style="fill:#CED6E0;" points="257.076,216.508 259.21,214.375 221.876,191.975 219.743,194.108 	"/>
	<polygon style="fill:#CED6E0;" points="251.743,220.775 252.81,219.708 216.543,197.308 214.41,198.375 	"/>
	<polygon style="fill:#CED6E0;" points="245.343,226.108 247.476,223.975 211.21,201.575 209.076,203.708 	"/>
</g>
<path style="fill:#4ABAA5;" d="M222.943,217.575c-6.4-4.267-16-3.2-21.333,1.067s-4.267,11.733,2.133,16
	c6.4,4.267,16,3.2,21.333-1.067l0,0l-11.733-7.467L222.943,217.575z"/>
<path style="fill:#FFD15C;" d="M225.076,233.575L225.076,233.575c-3.2,2.133-6.4,3.2-10.667,4.267l-1.067-10.667L225.076,233.575z"
	/>
<path style="fill:#415A6B;" d="M222.943,217.575l-9.6,8.533l11.733,7.467C230.41,229.308,230.41,221.842,222.943,217.575z"/>
<g>
</g>
<g>
</g>
<g>
</g>
<g>
</g>
<g>
</g>
<g>
</g>
<g>
</g>
<g>
</g>
<g>
</g>
<g>
</g>
<g>
</g>
<g>
</g>
<g>
</g>
<g>
</g>
<g>
</g>
</svg>
