<svg id="Capa_1" enable-background="new 0 0 511.931 511.931" height="512" viewBox="0 0 511.931 511.931" width="512" xmlns="http://www.w3.org/2000/svg"><g><g><path d="m396.298 203.923h-2.57v-80.255h-271.564v80.255h-6.53c-15.515 0-28.093 12.577-28.093 28.09 0 15.514 12.578 28.09 28.093 28.09h6.53v.876c0 60.537 49.079 109.612 109.622 109.612h52.32c60.543 0 109.622-49.075 109.622-109.612v-.876h2.57c15.515 0 28.093-12.576 28.093-28.09 0-15.514-12.578-28.09-28.093-28.09z" fill="#ffd0c7"/><g><g><path d="m210.675 501.931h-151.079v-40.538c0-29.063 23.562-52.623 52.628-52.623h287.483c29.065 0 52.628 23.56 52.628 52.623v40.538h-151.078" fill="#ffda8f"/></g><path d="m308.555 335.738v1.131c.629-2.629.959-5.344.959-8.12 0-23.685-23.974-42.885-53.548-42.885s-53.548 19.2-53.548 42.885c0 3.274.458 6.463 1.326 9.527" fill="#ff9c9b"/><path d="m203.744 335.738v99.725c0 9.647 7.821 17.467 17.469 17.467 9.648 0 17.469-7.82 17.469-17.467v7.593c0 9.647 7.821 17.467 17.468 17.467 9.648 0 17.469-7.82 17.469-17.467v-42.563c0 9.647 7.821 17.467 17.469 17.467s17.469-7.82 17.469-17.467v-64.754h-104.813z" fill="#b8ecbc"/><path d="m412.651 107.062c-.285-.884-.58-1.763-.885-2.636-14.239-40.758-53.787-67.177-96.945-66.006-86.236-72.788-133.472 16.39-133.906 20.486-8.222-1.185-16.615-1.006-24.838.557-27.175 5.166-49.338 24.793-57.746 51.142l-.444 1.385c-5.14 16.107-4.722 23.453 1.195 39.29l23.38 50.685c2.266-1.53 7.827-1.993 18.862-4.482 29.375-6.627 12.183-46.792 29.089-70.805 5.204 8.728 45.442 26.745 78.664 40.468 17.471 7.217 35.2-9.751 28.779-27.53l-3.102-8.589c-1.888-2.691 72.225 62.053 119.273 63.612l4.41-5.791c17.119-22.483 23.064-51.792 15.102-78.905-.284-.965-.579-1.925-.888-2.881z" fill="#d1a184"/></g></g><g><g><path d="m399.707 398.77h-81.151v-23.22c23.067-6.947 43.815-20.927 58.982-39.87 15.127-18.893 24.167-42.146 25.89-66.246 17.608-3.347 30.964-18.854 30.964-37.421 0-17.596-11.994-32.443-28.236-36.798l.238-.313c19.213-25.232 25.472-58.047 16.738-87.787-.308-1.045-.628-2.087-.963-3.125-.309-.958-.629-1.91-.961-2.863-7.674-21.966-22.012-40.538-41.462-53.709-18.233-12.347-39.373-18.892-61.366-19.035-41.886-33.988-75.253-31.39-96.041-23.034-17.402 6.994-30.007 19.438-37.517 28.645-3.487 4.275-7.186 9.547-9.888 14.272-6.929-.39-13.872.069-20.724 1.371-30.81 5.858-55.873 28.053-65.4 57.91l-.449 1.4c-5.703 17.869-5.412 27.721 1.354 45.83.087.233.183.463.287.688l18.085 39.206c-17.402 3.511-30.546 18.919-30.546 37.34 0 19.949 15.417 36.365 34.963 37.963 3.615 47.736 35.74 89.19 81.24 104.437v24.357h-81.52c-34.533 0-62.628 28.093-62.628 62.623v40.538c0 5.522 4.478 10 10 10h151.078c5.522 0 10-4.478 10-10s-4.478-10-10-10h-141.077v-30.538c0-23.503 19.123-42.623 42.628-42.623h81.52v16.693c0 15.146 12.322 27.467 27.469 27.467 4.718 0 9.162-1.195 13.045-3.3 5.021 6.614 12.966 10.893 21.892 10.893 15.146 0 27.469-12.321 27.469-27.467v-16.128c2.375.672 4.881 1.031 7.469 1.031 8.134 0 15.453-3.554 20.487-9.189h88.133c23.505 0 42.628 19.12 42.628 42.623v30.538h-141.079c-5.523 0-10 4.478-10 10s4.477 10 10 10h151.077c5.522 0 10-4.478 10-10v-40.538c0-34.528-28.095-62.621-62.628-62.621zm-187.108-73.032c2.02-16.727 20.698-29.874 43.367-29.874s41.347 13.147 43.367 29.874zm-105.191-210.693.449-1.4c7.3-22.875 26.492-39.872 50.088-44.357 7.12-1.354 14.368-1.517 21.544-.483 2.684.386 5.42-.336 7.565-2.005 1.735-1.35 2.966-3.224 3.524-5.321 2.259-5.475 18.512-32.692 46.046-39.822 21.751-5.632 45.887 2.58 71.746 24.406 1.876 1.583 4.257 2.449 6.722 2.354 39.438-1.059 74.466 22.766 87.231 59.302.279.801.549 1.605.81 2.415v.001c.282.874.552 1.752.809 2.624 6.946 23.656 1.914 49.836-13.463 70.03l-1.091 1.432c-17.82-2.367-49.585-15.011-104.187-57.892-1.398-1.098-2.495-1.958-3.251-2.534-7.312-5.574-12.648-1.49-14.108-.106-2.99 2.832-3.858 7.183-2.437 10.901l3.043 8.422c2.418 6.696-1.641 11.276-2.942 12.52-1.3 1.241-6.05 5.077-12.614 2.37-63.954-26.418-73.011-35.346-74.001-36.525-1.754-2.806-4.786-4.566-8.101-4.692-3.385-.124-6.605 1.467-8.556 4.236-8.616 12.238-9.884 26.894-11.002 39.824-1.684 19.463-3.381 25.013-12.111 26.982-3.84.866-7.047 1.489-9.625 1.989-.529.103-1.042.202-1.535.299l-19.643-42.581c-5.139-13.839-5.257-18.768-.91-32.389zm24.756 145.935v-.877c0-5.523-4.477-10-10-10h-6.53c-9.977 0-18.093-8.115-18.093-18.09 0-9.976 8.116-18.091 18.093-18.091h6.53c3.245 0 6.129-1.546 7.956-3.942.997-.206 2.123-.425 3.188-.631 2.71-.526 6.083-1.181 10.218-2.113 24.234-5.468 26.12-27.259 27.635-44.769.584-6.759 1.181-13.659 2.857-19.792 10.559 6.687 30.872 17.035 71.241 33.71 11.79 4.871 24.846 2.418 34.067-6.396 4.702-4.494 7.798-10.057 9.131-16.021 38.809 28.721 70.75 45.349 95.272 49.602v.352c0 5.523 4.477 10 10 10h2.569c9.977 0 18.093 8.115 18.093 18.091 0 9.975-8.116 18.09-18.093 18.09h-2.569c-5.523 0-10 4.477-10 10v.877c0 42.373-26.27 79.304-65.173 93.518v-16.526c.636-3.032.958-6.128.958-9.223 0-29.161-28.508-52.885-63.548-52.885s-63.548 23.724-63.548 52.885c0 3.647.446 7.282 1.326 10.827v13.5c-36.783-15.208-61.58-51.528-61.58-92.096zm158.923 146.98c-4.118 0-7.469-3.35-7.469-7.467 0-5.522-4.478-10-10-10s-10 4.478-10 10v42.564c0 4.117-3.35 7.467-7.469 7.467-4.118 0-7.469-3.35-7.469-7.467v-7.593c0-5.522-4.477-10-10-10-5.522 0-10 4.478-10 10 0 4.117-3.35 7.467-7.468 7.467s-7.469-3.35-7.469-7.467v-89.726h84.811v54.755c.001 4.117-3.349 7.467-7.467 7.467z"/><g><path d="m256.145 511.931c-4.17 0-7.988-2.701-9.402-6.615-1.416-3.919-.175-8.472 3.059-11.113 3.333-2.722 8.137-2.986 11.757-.67 3.387 2.167 5.171 6.325 4.406 10.274-.901 4.646-5.075 8.124-9.82 8.124z"/></g></g><g><path d="m321.074 267.908c-2.559 0-5.118-.977-7.07-2.929l-16.272-16.271c-3.906-3.905-3.906-10.236-.001-14.142 3.904-3.906 10.237-3.907 14.142-.001l9.202 9.2 9.202-9.2c3.906-3.904 10.239-3.904 14.142.001 3.905 3.905 3.905 10.236-.001 14.142l-16.272 16.271c-1.954 1.952-4.513 2.929-7.072 2.929z"/></g><g><path d="m190.857 267.908c-2.559 0-5.118-.977-7.07-2.929l-16.273-16.271c-3.906-3.905-3.906-10.236-.001-14.142 3.904-3.906 10.237-3.907 14.142-.001l9.202 9.2 9.202-9.2c3.905-3.904 10.238-3.904 14.142.001 3.905 3.905 3.905 10.236-.001 14.142l-16.273 16.271c-1.952 1.952-4.511 2.929-7.07 2.929z"/></g></g></g></svg>