<?xml version="1.0"?>
<svg xmlns="http://www.w3.org/2000/svg" viewBox="0 0 64 64" width="512" height="512"><g id="Partnership"><path d="M26,12,24,8,21.76,6.21a17.772,17.772,0,0,0-6.26,7.61,17.129,17.129,0,0,0-1.23,4.09A17.494,17.494,0,0,0,14,21c0,.53.02,1.05.07,1.56a17.528,17.528,0,0,0,.72,3.71A17.909,17.909,0,0,0,19,33.44a17.694,17.694,0,0,0,1.86,1.7L23,33V29l1-3,5-3V19l-3-3Z" style="fill:#00ccb3"/><path d="M49.74,18a17.392,17.392,0,0,0-1.24-4.18A17.974,17.974,0,0,0,35.09,3.27L31,9v4l7,3v3l4,3v4l-3,4,4.68,4.68A14.038,14.038,0,0,0,45,33.44a17.909,17.909,0,0,0,4.21-7.17,17.528,17.528,0,0,0,.72-3.71c.05-.51.07-1.03.07-1.56A17.434,17.434,0,0,0,49.74,18Z" style="fill:#00ccb3"/><path d="M61,59v2H55l-2-1V57h6A2.006,2.006,0,0,1,61,59Z" style="fill:#754c29"/><polygon points="53 57 48 57 48 41 58 41 58 57 53 57" style="fill:#787680"/><path d="M55,23.46V26l-2,2-2-2V23.46a3.974,3.974,0,0,0,4,0Z" style="fill:#ffb655"/><path d="M53,57v3l-2,1H45V59a2.006,2.006,0,0,1,2-2h6Z" style="fill:#8b5e3c"/><path d="M56.83,18a2.006,2.006,0,0,1-1.42-.59L54,16l-.83.83A4,4,0,0,1,50.34,18H49v2a3.978,3.978,0,0,0,.93,2.56,3.273,3.273,0,0,0,.24.27,4.225,4.225,0,0,0,.83.63A4,4,0,0,0,57,20V18Z" style="fill:#ffc477"/><path d="M55,23.46v1a3.974,3.974,0,0,1-4,0v-1a3.974,3.974,0,0,0,4,0Z" style="fill:#ffa733"/><path d="M53,11a5,5,0,0,0-5,5v2h2.34a4,4,0,0,0,2.83-1.17L54,16l1.41,1.41a2.006,2.006,0,0,0,1.42.59H58V16A5,5,0,0,0,53,11Z" style="fill:#787680"/><path d="M55,26l-2,2-2-2a5.925,5.925,0,0,0-1.79.27A6.015,6.015,0,0,0,45,32v9H61V32A6,6,0,0,0,55,26Z" style="fill:#3d9ae2"/><path d="M39,30l4.68,4.68A17.828,17.828,0,0,1,33,38.97V34h1l2-1V30l-2-2H30l-2,2v3l2,3v2.89a17.989,17.989,0,0,1-9.14-3.75L23,33V29l1-3,5-3V19l-3-3V12L24,8,21.76,6.21A17.831,17.831,0,0,1,32,3a17.494,17.494,0,0,1,3.09.27L31,9v4l7,3v3l4,3v4Z" style="fill:#5aaae7"/><circle cx="37" cy="58" r="3" style="fill:#ffd422"/><path d="M36,30v3l-2,1H33v4.97c-.33.02-.67.03-1,.03a18.851,18.851,0,0,1-2-.11V36l-2-3V30l2-2h4Z" style="fill:#00ccb3"/><circle cx="26" cy="50" r="3" style="fill:#ffd422"/><path d="M19,59v2H13l-2-1V57h6A2.006,2.006,0,0,1,19,59Z" style="fill:#754c29"/><path d="M14.79,26.27A5.925,5.925,0,0,0,13,26l-2,2L9,26a6,6,0,0,0-6,6v9H19V32A6.015,6.015,0,0,0,14.79,26.27Z" style="fill:#ff6243"/><polygon points="11 57 6 57 6 41 16 41 16 57 11 57" style="fill:#787680"/><path d="M15.5,13.82A5,5,0,0,0,6,16v2H8.34a4,4,0,0,0,2.83-1.17L12,16l1.41,1.41a1.881,1.881,0,0,0,.86.5,1.774,1.774,0,0,0,.56.09H16V16A4.985,4.985,0,0,0,15.5,13.82Z" style="fill:#787680"/><path d="M14.83,18a1.774,1.774,0,0,1-.56-.09,1.881,1.881,0,0,1-.86-.5L12,16l-.83.83A4,4,0,0,1,8.34,18H7v2a4.025,4.025,0,0,0,1.17,2.83,4.225,4.225,0,0,0,.83.63,3.974,3.974,0,0,0,4,0,3.858,3.858,0,0,0,1.07-.9A3.978,3.978,0,0,0,15,20V18Z" style="fill:#ffc477"/><path d="M13,23.46V26l-2,2L9,26V23.46a3.974,3.974,0,0,0,4,0Z" style="fill:#ffb655"/><path d="M11,57v3L9,61H3V59a2.006,2.006,0,0,1,2-2h6Z" style="fill:#8b5e3c"/><path d="M13,23.46v1a3.974,3.974,0,0,1-4,0v-1a3.974,3.974,0,0,0,4,0Z" style="fill:#ffa733"/><path d="M61,42a1,1,0,0,0,1-1V32a7.011,7.011,0,0,0-6-6.929v-1.1A4.977,4.977,0,0,0,58,20V19a1,1,0,0,0,1-1V16a5.992,5.992,0,0,0-10.348-4.123A18.859,18.859,0,0,0,35.268,2.286,18.461,18.461,0,0,0,32,2a19.026,19.026,0,0,0-16.654,9.875A5.992,5.992,0,0,0,5,16v2a1,1,0,0,0,1,1v1a4.977,4.977,0,0,0,2,3.974v1.1A7.011,7.011,0,0,0,2,32v9a1,1,0,0,0,1,1H5V56a3,3,0,0,0-3,3v2a1,1,0,0,0,1,1H9a1,1,0,0,0,.447-.1L11,61.118l1.553.777A1,1,0,0,0,13,62h6a1,1,0,0,0,1-1V59a3,3,0,0,0-3-3V42h2a1,1,0,0,0,1-1V35.719c.085.07.154.137.242.207A19,19,0,0,0,29.9,39.885,20,20,0,0,0,32,40c.35,0,.711-.01,1.054-.031A18.688,18.688,0,0,0,44,35.7V41a1,1,0,0,0,1,1h2V56a3,3,0,0,0-3,3v2a1,1,0,0,0,1,1h6a1,1,0,0,0,.447-.1L53,61.118l1.553.777A1,1,0,0,0,55,62h6a1,1,0,0,0,1-1V59a3,3,0,0,0-3-3V42ZM54,25.586l-1,1-1-1V24.9a5,5,0,0,0,2,0ZM53,23a3,3,0,0,1-3-3V19h.343a4.968,4.968,0,0,0,3.536-1.464L54,17.415l.707.706A2.96,2.96,0,0,0,56,18.87V20A3,3,0,0,1,53,23Zm0-11a4,4,0,0,1,4,4v1h-.172a1.009,1.009,0,0,1-.707-.293l-1.414-1.414a1,1,0,0,0-1.414,0l-.828.829A2.983,2.983,0,0,1,50.343,17H49V16A4,4,0,0,1,53,12Zm-5.593,1.845A5.961,5.961,0,0,0,47,16v2a1,1,0,0,0,1,1v1a4.972,4.972,0,0,0,.884,2.829,16.469,16.469,0,0,1-.515,2.691A7.005,7.005,0,0,0,44,32v1.027c-.093.093-.182.188-.279.28l-3.4-3.4L42.8,26.6A1,1,0,0,0,43,26V22a1,1,0,0,0-.4-.8L39,18.5V16a1,1,0,0,0-.606-.919L32,12.341V9.32l3.526-4.941A16.881,16.881,0,0,1,47.407,13.845ZM33.3,4.056,30.187,8.419A.994.994,0,0,0,30,9v4a1,1,0,0,0,.606.919L37,16.659V19a1,1,0,0,0,.4.8L41,22.5v3.167L38.2,29.4a1,1,0,0,0,.093,1.307l3.886,3.887A16.681,16.681,0,0,1,34,37.872V35a1,1,0,0,0,.447-.1l2-1A1,1,0,0,0,37,33V30a1,1,0,0,0-.293-.707l-2-2A1,1,0,0,0,34,27H30a1,1,0,0,0-.707.293l-2,2A1,1,0,0,0,27,30v3a1.006,1.006,0,0,0,.168.555L29,36.3v1.43a16.979,16.979,0,0,1-6.608-2.71l1.315-1.316A1,1,0,0,0,24,33V29.162l.832-2.495,4.683-2.81A1,1,0,0,0,30,23V19a1,1,0,0,0-.293-.707L27,15.586V12a1,1,0,0,0-.105-.447l-2-4a1,1,0,0,0-.271-.334L23.476,6.3A16.817,16.817,0,0,1,32,4C32.438,4,32.871,4.023,33.3,4.056ZM7,16a4,4,0,0,1,8,0v1h-.172a1.009,1.009,0,0,1-.707-.293l-1.414-1.414a1,1,0,0,0-1.414,0l-.828.829A2.983,2.983,0,0,1,8.343,17H7Zm1.343,3a4.968,4.968,0,0,0,3.536-1.464L12,17.415l.707.706A2.96,2.96,0,0,0,14,18.87V20a3,3,0,0,1-6,0V19ZM11,25a5,5,0,0,0,1-.1v.687l-1,1-1-1V24.9A5,5,0,0,0,11,25ZM8.764,60H4V59a1,1,0,0,1,1-1h5v1.382ZM18,59v1H13.236L12,59.382V58h5A1,1,0,0,1,18,59Zm-3-3H12V44H10V56H7V42h8Zm3-16H17V31H15v9H7V31H5v9H4V32a4.991,4.991,0,0,1,4.624-4.962L10,28.414V38h2V28.414l1.376-1.376A4.991,4.991,0,0,1,18,32ZM15.631,25.52a16.469,16.469,0,0,1-.515-2.691A4.972,4.972,0,0,0,16,20V19a1,1,0,0,0,1-1V16a5.977,5.977,0,0,0-.406-2.154,16.68,16.68,0,0,1,5.142-6.375L23.2,8.644,25,12.236V16a1,1,0,0,0,.293.707L28,19.414v3.02l-4.515,2.709a1,1,0,0,0-.433.541l-1,3A1,1,0,0,0,22,29v3.586L20.806,33.78Q20.37,33.4,20,33.022V32A7.005,7.005,0,0,0,15.631,25.52ZM31,37.956V36a1.006,1.006,0,0,0-.168-.555L29,32.7V30.414L30.414,29h3.172L35,30.414v1.968L33.764,33H33a1,1,0,0,0-1,1v3.987C31.673,37.987,31.336,37.976,31,37.956ZM46,32a4.991,4.991,0,0,1,4.624-4.962L52,28.414V38h2V28.414l1.376-1.376A4.991,4.991,0,0,1,60,32v8H59V31H57v9H49V31H47v9H46Zm4.764,28H46V59a1,1,0,0,1,1-1h5v1.382ZM60,59v1H55.236L54,59.382V58h5A1,1,0,0,1,60,59Zm-3-3H54V44H52V56H49V42h8Z"/><path d="M26,46a4,4,0,1,0,4,4A4,4,0,0,0,26,46Zm0,6a2,2,0,1,1,2-2A2,2,0,0,1,26,52Z"/><path d="M37,54a4,4,0,1,0,4,4A4,4,0,0,0,37,54Zm0,6a2,2,0,1,1,2-2A2,2,0,0,1,37,60Z"/><rect x="23" y="41" width="2" height="4"/><rect x="27" y="43" width="2" height="2"/><rect x="34" y="48" width="2" height="4"/><rect x="38" y="50" width="2" height="2"/><rect x="34" y="44" width="2" height="2"/></g></svg>
