<svg id="Layer_1" enable-background="new 0 0 256 256" height="512" viewBox="0 0 256 256" width="512" xmlns="http://www.w3.org/2000/svg"><g><path d="m209.491 235.282h-129.753v-57.515c0-29.271 23.729-53 53-53h23.753c29.271 0 53 23.729 53 53z" fill="#cecece"/><path d="m156.491 124.767h-14.667c29.271 0 53 23.729 53 53v57.515h14.667v-57.515c0-29.272-23.729-53-53-53z" fill="#e2e2e2"/><path d="m144.615 127.93h22.034v46.591h-22.034z" fill="#f46275"/><g><path d="m151.982 127.93h14.667v46.591h-14.667z" fill="#f48875"/></g><path d="m120.022 121.041v9.296c0 3.987 3.232 7.219 7.219 7.219h34.746c3.987 0 7.219-3.232 7.219-7.219v-9.296c0-3.987-3.232-7.219-7.219-7.219h-34.746c-3.986-.001-7.219 3.231-7.219 7.219z" fill="#f46275"/><path d="m161.988 113.821h-14.667c3.987 0 7.219 3.232 7.219 7.219v9.296c0 3.987-3.232 7.219-7.219 7.219h14.667c3.987 0 7.219-3.232 7.219-7.219v-9.296c0-3.987-3.232-7.219-7.219-7.219z" fill="#f48875"/><g><circle cx="106.657" cy="73.148" fill="#f8af23" r="7.633"/><circle cx="182.572" cy="73.148" fill="#f8d323" r="7.633"/></g><path d="m144.615 119.304c-20.963 0-37.958-16.994-37.958-37.958v-13.995c0-20.963 16.994-37.958 37.958-37.958 20.963 0 37.958 16.994 37.958 37.958v13.995c-.001 20.963-16.995 37.958-37.958 37.958z" fill="#f8af23"/><g><path d="m144.615 29.393c-2.51 0-4.96.25-7.333.715 17.453 3.417 30.624 18.789 30.624 37.243v13.995c0 18.454-13.171 33.826-30.624 37.243 2.373.465 4.824.715 7.333.715 20.963 0 37.958-16.994 37.958-37.958v-13.995c-.001-20.964-16.995-37.958-37.958-37.958z" fill="#f8d323"/></g><path d="m142.149 63.962c-6.106-1.405-16.901-5.006-16.901-5.006-1.664-.472-3.42.365-4.102 1.955l-1.259 2.937c-2.174 5.073-5.952 9.294-10.755 12.015l-2.476 1.401-6.007-23.14c-2.404-9.352-.401-19.291 5.438-26.982l3.733-4.917c3.418-4.502 8.382-7.579 13.934-8.636 0 0 12.615-2.814 18.967-3.735 1.075-.156 2.825-.14 3.899.022 5.676.856 16.321 3.23 16.321 3.23 7.183 1.368 13.605 5.348 18.026 11.172l2.174 2.864c5.839 7.691 7.841 17.629 5.438 26.982l-6.007 23.14-2.476-1.401c-4.803-2.721-8.58-6.941-10.755-12.015l-1.259-2.937c-.681-1.59-2.437-2.427-4.102-1.955 0 0-10.795 3.601-16.901 5.006-1.356.312-3.573.312-4.93 0z" fill="#707070"/><g><path d="m183.142 27.143-2.174-2.864c-4.421-5.824-10.843-9.804-18.026-11.172 0 0-10.645-2.375-16.321-3.23-1.074-.162-2.824-.178-3.899-.022-1.555.225-3.485.564-5.513.948 5.306 1.02 11.066 2.305 11.066 2.305 7.183 1.368 13.605 5.348 18.026 11.172l2.174 2.864c5.839 7.691 7.841 17.629 5.438 26.982l-3.216 12.386c2.241 3.882 5.468 7.126 9.399 9.353l2.476 1.401 6.007-23.14c2.404-9.354.401-19.292-5.437-26.983z" fill="#9e9e9e"/></g><g fill="#3f3679"><circle cx="129.522" cy="85.19" r="3.675"/><circle cx="159.708" cy="85.19" r="3.675"/></g><circle cx="91.13" cy="190.661" fill="#f8af23" r="44.621"/><path d="m61.176 190.661c0-22.145 16.135-40.512 37.288-44.011-2.387-.395-4.834-.61-7.333-.61-24.644 0-44.621 19.978-44.621 44.621s19.977 44.621 44.621 44.621c2.499 0 4.946-.215 7.333-.61-21.153-3.5-37.288-21.867-37.288-44.011z" fill="#f87023"/><path d="m115.671 182.524h-13.877c-1.452 0-2.629-1.177-2.629-2.629v-13.877c0-1.452-1.177-2.629-2.629-2.629h-10.81c-1.452 0-2.629 1.177-2.629 2.629v13.877c0 1.452-1.177 2.629-2.629 2.629h-13.879c-1.452 0-2.629 1.177-2.629 2.629v10.81c0 1.452 1.177 2.629 2.629 2.629h13.877c1.452 0 2.629 1.177 2.629 2.629v13.877c0 1.452 1.177 2.629 2.629 2.629h10.81c1.452 0 2.629-1.177 2.629-2.629v-13.877c0-1.452 1.177-2.629 2.629-2.629h13.877c1.452 0 2.629-1.177 2.629-2.629v-10.81c.002-1.452-1.175-2.629-2.627-2.629z" fill="#63bce7"/><g fill="#3f3679"><circle cx="144.615" cy="194.125" r="4.835"/><circle cx="144.615" cy="216.674" r="4.835"/><g><path d="m144.615 95.673c.829 0 1.5-.671 1.5-1.5v-6.153c0-.829-.671-1.5-1.5-1.5s-1.5.671-1.5 1.5v6.153c0 .829.671 1.5 1.5 1.5z"/><path d="m134.927 74.764-11.669 3.486c-.794.237-1.245 1.073-1.008 1.866.194.651.791 1.071 1.437 1.071.142 0 .287-.021.43-.063l11.669-3.486c.794-.237 1.245-1.073 1.008-1.866-.237-.794-1.074-1.247-1.867-1.008z"/><path d="m153.443 77.638 11.67 3.486c.143.043.288.063.43.063.646 0 1.243-.42 1.437-1.071.237-.793-.214-1.629-1.008-1.866l-11.67-3.486c-.794-.236-1.63.214-1.866 1.008-.238.793.213 1.629 1.007 1.866z"/><path d="m149.115 107.37c.297.338.711.511 1.128.511.351 0 .704-.123.988-.372.623-.546.685-1.494.139-2.117-1.711-1.951-4.173-3.07-6.756-3.07s-5.045 1.119-6.756 3.07c-.546.623-.484 1.57.139 2.117.622.546 1.571.484 2.117-.139 1.141-1.301 2.782-2.048 4.5-2.048s3.36.747 4.501 2.048z"/><path d="m100.664 215.099v-13.877c0-.623.507-1.129 1.129-1.129h13.877c2.277 0 4.129-1.853 4.129-4.129v-10.81c0-2.277-1.853-4.129-4.129-4.129h-13.877c-.623 0-1.129-.507-1.129-1.129v-13.877c0-2.277-1.852-4.129-4.129-4.129h-10.81c-2.277 0-4.129 1.853-4.129 4.129v13.877c0 .623-.507 1.129-1.129 1.129h-13.878c-2.277 0-4.129 1.853-4.129 4.129v10.81c0 2.277 1.853 4.129 4.129 4.129h13.877c.623 0 1.129.507 1.129 1.129v13.877c0 2.277 1.853 4.129 4.129 4.129h10.81c2.278.001 4.13-1.852 4.13-4.129zm-16.068 0v-13.877c0-2.277-1.853-4.129-4.129-4.129h-13.878c-.623 0-1.129-.507-1.129-1.129v-10.81c0-.623.507-1.129 1.129-1.129h13.877c2.277 0 4.129-1.853 4.129-4.129v-13.877c0-.623.507-1.129 1.129-1.129h10.81c.623 0 1.129.507 1.129 1.129v13.877c0 2.277 1.853 4.129 4.129 4.129h13.877c.623 0 1.129.507 1.129 1.129v10.81c0 .623-.507 1.129-1.129 1.129h-13.877c-2.277 0-4.129 1.853-4.129 4.129v13.877c0 .623-.506 1.129-1.129 1.129h-10.81c-.621.001-1.128-.506-1.128-1.129z"/><path d="m27.323 244.754h-18.003c-.829 0-1.5.671-1.5 1.5s.671 1.5 1.5 1.5h18.003c.829 0 1.5-.671 1.5-1.5s-.671-1.5-1.5-1.5z"/><path d="m246.68 244.754h-18.003c-.829 0-1.5.671-1.5 1.5s.671 1.5 1.5 1.5h18.003c.829 0 1.5-.671 1.5-1.5s-.671-1.5-1.5-1.5z"/><path d="m218.479 244.754h-180.958c-.829 0-1.5.671-1.5 1.5s.671 1.5 1.5 1.5h180.959c.829 0 1.5-.671 1.5-1.5s-.672-1.5-1.501-1.5z"/><path d="m9.32 236.782h70.418 129.753 37.189c.829 0 1.5-.671 1.5-1.5s-.671-1.5-1.5-1.5h-35.689v-56.015c0-24.707-16.526-46.218-40.284-52.615v-4.111c0-2.91-1.467-5.58-3.774-7.178 10.136-6.979 16.854-18.565 17.119-31.712 4.333-.711 7.653-4.471 7.653-9.002 0-3.261-1.726-6.22-4.477-7.85l2.804-10.8c2.533-9.856.457-20.157-5.696-28.262l-2.174-2.864c-4.654-6.13-11.38-10.299-18.894-11.729-.437-.098-10.761-2.396-16.424-3.25-1.237-.186-3.142-.196-4.337-.023-6.335.918-18.561 3.64-19.033 3.746-5.927 1.129-11.2 4.397-14.849 9.203l-3.733 4.917c-6.153 8.105-8.229 18.406-5.694 28.266l2.807 10.812c-2.739 1.634-4.481 4.614-4.481 7.835 0 4.508 3.294 8.301 7.653 9.012.268 13.141 6.985 24.723 17.116 31.7-2.322 1.594-3.771 4.243-3.771 7.181v4.109c-11.462 3.092-21.733 9.965-29.011 19.431-24.683.857-44.502 21.192-44.502 46.08 0 19.679 12.393 36.51 29.781 43.121h-65.47c-.829 0-1.5.671-1.5 1.5s.671 1.498 1.5 1.498zm155.829-63.76h-19.034v-33.966h15.873c1.116 0 2.18-.218 3.161-.602zm23.556-99.874c0 2.864-1.975 5.268-4.633 5.94v-1.633l2.355-9.072c1.418 1.146 2.278 2.88 2.278 4.765zm-81.423-45.099 3.733-4.917c3.199-4.214 7.823-7.08 13.066-8.08.125-.028 12.632-2.812 18.856-3.714.425-.062 1.01-.092 1.608-.092.669 0 1.354.038 1.852.113 5.559.838 16.112 3.188 16.264 3.221 6.83 1.301 12.907 5.067 17.112 10.605l2.174 2.864c5.596 7.371 7.484 16.739 5.181 25.698l-5.517 21.249-.775-.438c-4.49-2.544-8.083-6.558-10.115-11.301l-1.259-2.937c-.976-2.276-3.509-3.485-5.956-2.788-.107.036-10.796 3.594-16.763 4.966-1.135.262-3.123.262-4.258 0-5.965-1.372-16.656-4.931-16.829-4.987-2.381-.674-4.914.532-5.89 2.808l-1.259 2.937c-2.033 4.743-5.625 8.757-10.115 11.3l-.776.439-5.516-21.246c-2.301-8.96-.413-18.329 5.182-25.7zm-6.758 45.099c0-1.862.869-3.602 2.281-4.753l2.352 9.06v1.639c-2.671-.672-4.633-3.095-4.633-5.946zm7.633 8.198v-3.207l1.715-.971c5.058-2.866 9.104-7.387 11.395-12.729l1.259-2.937c.383-.895 1.378-1.37 2.248-1.124.444.148 10.934 3.64 17.04 5.044 1.571.361 4.032.361 5.604 0 6.105-1.405 16.596-4.896 16.974-5.024.935-.267 1.931.209 2.314 1.103l1.259 2.937c2.29 5.343 6.336 9.864 11.395 12.73l1.714.97v3.207c0 20.103-16.355 36.458-36.458 36.458s-36.459-16.354-36.459-36.457zm13.365 39.695c0-2.406 1.486-4.508 3.716-5.342 5.728 3.244 12.337 5.105 19.376 5.105 7.037 0 13.645-1.861 19.372-5.103 2.206.828 3.721 2.951 3.721 5.34v9.296c0 3.154-2.565 5.719-5.719 5.719h-34.746c-3.154 0-5.719-2.565-5.719-5.719v-9.296zm-3 7.223v2.073c0 4.808 3.912 8.719 8.719 8.719h15.873v35.466 7.472c0 .829.671 1.5 1.5 1.5s1.5-.671 1.5-1.5v-5.972h4.544v5.972c0 .829.671 1.5 1.5 1.5s1.5-.671 1.5-1.5v-5.972h3.945v5.972c0 .829.671 1.5 1.5 1.5s1.5-.671 1.5-1.5v-5.972h4.545v5.972c0 .829.671 1.5 1.5 1.5s1.5-.671 1.5-1.5v-7.472-37.98c0-.013-.004-.025-.004-.038 1.582-1.579 2.562-3.761 2.562-6.167v-2.074c22.03 6.301 37.284 26.428 37.284 49.504v56.015h-17.508v-59.26c0-.829-.671-1.5-1.5-1.5s-1.5.671-1.5 1.5v59.26h-80.012c17.388-6.611 29.781-23.442 29.781-43.121 0-24.686-19.496-44.901-43.899-46.065 6.586-7.803 15.398-13.526 25.17-16.332zm-70.513 62.397c0-23.777 19.344-43.121 43.121-43.121s43.121 19.344 43.121 43.121-19.344 43.121-43.121 43.121-43.121-19.344-43.121-43.121z"/></g></g></g></svg>