<?xml version="1.0" encoding="iso-8859-1"?>
<!-- Generator: Adobe Illustrator 19.0.0, SVG Export Plug-In . SVG Version: 6.00 Build 0)  -->
<svg version="1.1" id="Capa_1" xmlns="http://www.w3.org/2000/svg" xmlns:xlink="http://www.w3.org/1999/xlink" x="0px" y="0px"
	 viewBox="0 0 512.001 512.001" style="enable-background:new 0 0 512.001 512.001;" xml:space="preserve">
<circle style="fill:#BBEF89;" cx="256" cy="265.921" r="246.08"/>
<path style="fill:#DAECF7;" d="M428.309,331.11c-2.086,0-4.173-0.796-5.765-2.387l-36.679-36.679c-3.184-3.185-3.184-8.346,0-11.53
	c3.183-3.182,8.346-3.182,11.529,0l36.679,36.679c3.184,3.185,3.184,8.346,0,11.53C432.481,330.314,430.395,331.11,428.309,331.11z"
	/>
<path style="fill:#5F6AB9;" d="M256,512.001c26.46,0,51.937-4.193,75.824-11.923c0.704-3.355,1.079-6.83,1.079-10.391
	c0-161.171,0-282.166,0-439.157c0-27.862-22.667-50.53-50.53-50.53h-189.7c-27.863,0-50.53,22.668-50.53,50.53
	c0,17.931,0,212.715,0,337.197C84.513,461.958,164.409,512.001,256,512.001z"/>
<path style="fill:#524FA1;" d="M98.39,50.531c0-27.862,22.668-50.53,50.53-50.53H92.673c-27.863,0-50.53,22.668-50.53,50.53
	c0,17.931,0,212.715,0,337.197c14.629,25.63,33.734,48.374,56.247,67.173C98.39,310.607,98.39,196.024,98.39,50.531z"/>
<g>
	<path style="fill:#6D85D2;" d="M218.85,36.149h-33.87c-4.502,0-8.152-3.649-8.152-8.152s3.65-8.152,8.152-8.152h33.87
		c4.502,0,8.152,3.649,8.152,8.152S223.353,36.149,218.85,36.149z"/>
	<path style="fill:#6D85D2;" d="M156.349,36.145c-4.43,0-8.152-3.578-8.152-8.152c0-3.7,2.532-7.152,6.565-7.989
		c4.961-0.984,9.739,2.777,9.739,7.989C164.5,32.459,160.904,36.145,156.349,36.145z"/>
</g>
<path style="fill:#DAECF7;" d="M256,512.001c12.863,0,25.491-0.999,37.82-2.905c6.635-3.921,11.087-11.143,11.087-19.408
	c0-12.187,0-396.189,0-439.156c0-12.446-10.089-22.534-22.534-22.534H258.73c-4.655,0-8.429,3.772-8.432,8.427v5.353
	c0,7.174-5.87,13.044-13.044,13.044l0,0h-99.462h-0.001c-7.174,0-13.044-5.87-13.044-13.044v-5.353
	c-0.003-4.655-3.777-8.427-8.432-8.427H92.673c-12.445,0-22.534,10.089-22.534,22.534v376.656
	C115.254,479.143,181.788,512.001,256,512.001z"/>
<path style="fill:#92D1EA;" d="M98.39,50.531c0-8.095,1.924-15.744,5.322-22.534H92.673c-12.445,0-22.534,10.089-22.534,22.534
	v376.645c8.449,9.716,17.8,18.988,28.251,27.71C98.39,310.6,98.39,196.019,98.39,50.531z"/>
<path style="fill:#B2D9ED;" d="M192.77,482.413H180.9c-4.502,0-8.152-3.649-8.152-8.152s3.65-8.152,8.152-8.152h11.87
	c4.502,0,8.152,3.649,8.152,8.152S197.272,482.413,192.77,482.413z"/>
<path style="fill:#14C0EB;" d="M269.094,190.96H105.951c-4.176,0-7.561,3.385-7.561,7.561v31.886c0,4.176,3.385,7.561,7.561,7.561
	h163.143c4.176,0,7.562-3.385,7.562-7.561v-31.886C276.656,194.345,273.27,190.96,269.094,190.96z"/>
<g>
	<path style="fill:#92D1EA;" d="M269.094,102.58H105.951c-4.176,0-7.561,3.385-7.561,7.561v31.886c0,4.176,3.385,7.561,7.561,7.561
		h163.143c4.176,0,7.562-3.385,7.562-7.561v-31.886C276.656,105.965,273.27,102.58,269.094,102.58z"/>
	<path style="fill:#92D1EA;" d="M269.094,279.34H105.951c-4.176,0-7.561,3.385-7.561,7.561v31.886c0,4.176,3.385,7.561,7.561,7.561
		h163.143c4.176,0,7.562-3.385,7.562-7.561v-31.886C276.656,282.725,273.27,279.34,269.094,279.34z"/>
</g>
<path style="fill:#14C0EB;" d="M269.094,367.72H105.951c-4.176,0-7.561,3.385-7.561,7.561v31.886c0,4.176,3.385,7.561,7.561,7.561
	h163.143c4.176,0,7.562-3.385,7.562-7.561v-31.886C276.656,371.105,273.27,367.72,269.094,367.72z"/>
<path style="fill:#029DCC;" d="M128.391,230.408v-31.887c0-4.176,3.385-7.562,7.561-7.562h-30c-4.176,0-7.561,3.385-7.561,7.562
	v31.886c0,4.176,3.385,7.562,7.561,7.562h30C131.775,237.969,128.391,234.584,128.391,230.408z"/>
<g>
	<path style="fill:#7BBEDB;" d="M128.391,142.028v-31.887c0-4.176,3.385-7.561,7.561-7.561h-30c-4.176,0-7.561,3.385-7.561,7.561
		v31.886c0,4.176,3.385,7.561,7.561,7.561h30C131.775,149.589,128.391,146.204,128.391,142.028z"/>
	<path style="fill:#7BBEDB;" d="M128.391,318.788v-31.887c0-4.176,3.385-7.561,7.561-7.561h-30c-4.176,0-7.561,3.385-7.561,7.561
		v31.886c0,4.176,3.385,7.561,7.561,7.561h30C131.775,326.349,128.391,322.964,128.391,318.788z"/>
</g>
<path style="fill:#029DCC;" d="M128.391,407.168v-31.887c0-4.176,3.385-7.562,7.561-7.562h-30c-4.176,0-7.561,3.385-7.561,7.562
	v31.886c0,4.176,3.385,7.561,7.561,7.561h30C131.775,414.729,128.391,411.344,128.391,407.168z"/>
<path style="fill:#FB6467;" d="M424.659,241.337c-15.737,58.731-76.321,93.709-135.051,77.972
	c-58.731-15.737-93.709-76.321-77.972-135.051c15.737-58.731,76.321-93.709,135.051-77.972
	C405.418,122.022,440.396,182.606,424.659,241.337z"/>
<path style="fill:#EF525A;" d="M349.126,284.946c-58.73-15.737-93.709-76.321-77.972-135.051
	c4.633-17.291,13.157-32.52,24.372-45.005c-39.354,8.318-72.786,37.928-83.89,79.367c-15.737,58.731,19.241,119.315,77.972,135.051
	c41.44,11.104,83.799-3.044,110.679-32.967C383.867,289.812,366.417,289.579,349.126,284.946z"/>
<path style="fill:#FB6467;" d="M497.176,391.826L497.176,391.826c-6.241,6.241-16.36,6.241-22.601,0L423.649,340.9
	c-6.241-6.241-6.241-16.36,0-22.601l0,0c6.241-6.241,16.36-6.241,22.601,0l50.926,50.926
	C503.418,375.466,503.418,385.584,497.176,391.826z"/>
<g>
	<path style="fill:#EF525A;" d="M484.451,380.756l-49.732-49.732c-4.589-4.589-5.719-11.323-3.399-16.972
		c-2.81,0.653-5.481,2.057-7.671,4.247c-6.241,6.241-6.241,16.36,0,22.601l50.926,50.926c6.241,6.241,16.36,6.241,22.601,0
		c2.19-2.19,3.594-4.861,4.248-7.671C495.774,386.475,489.04,385.345,484.451,380.756z"/>
	<path style="fill:#EF525A;" d="M240.835,192.081c-11.423,42.631,13.967,86.607,56.598,98.03
		c42.631,11.423,86.607-13.967,98.03-56.598s-13.967-86.607-56.598-98.03S252.258,149.45,240.835,192.081z"/>
</g>
<path style="fill:#DD4050;" d="M271.813,147.578c-14.684,10.413-25.966,25.797-30.978,44.503
	c-11.423,42.631,13.967,86.607,56.598,98.03c18.706,5.012,37.669,2.933,54.03-4.576c-0.779-0.191-1.558-0.38-2.336-0.589
	c-58.73-15.737-93.709-76.321-77.972-135.051C271.362,149.117,271.589,148.348,271.813,147.578z"/>
<path style="fill:#DAECF7;" d="M352.956,200.082h-19.487c-1.439,0-2.605-1.167-2.605-2.605V177.99c0-1.439-1.166-2.605-2.605-2.605
	h-20.221c-1.439,0-2.605,1.166-2.605,2.605v19.487c0,1.439-1.166,2.605-2.605,2.605H283.34c-1.439,0-2.605,1.167-2.605,2.605v20.221
	c0,1.439,1.166,2.605,2.605,2.605h19.487c1.439,0,2.605,1.166,2.605,2.605v19.487c0,1.439,1.166,2.605,2.605,2.605h20.221
	c1.439,0,2.605-1.166,2.605-2.605v-19.487c0-1.439,1.166-2.605,2.605-2.605h19.487c1.439,0,2.605-1.166,2.605-2.605v-20.221
	C355.561,201.248,354.395,200.082,352.956,200.082z"/>
<path style="fill:#92D1EA;" d="M318.148,246.076v-66.558c0-2.283,1.851-4.134,4.134-4.134h-14.244c-1.439,0-2.605,1.167-2.605,2.605
	v19.487c0,1.439-1.166,2.605-2.605,2.605H283.34c-1.439,0-2.605,1.167-2.605,2.605v20.221c0,1.439,1.166,2.605,2.605,2.605h19.487
	c1.439,0,2.605,1.166,2.605,2.605v19.487c0,1.439,1.167,2.605,2.605,2.605h14.244C319.999,250.21,318.148,248.359,318.148,246.076z"
	/>
<g>
</g>
<g>
</g>
<g>
</g>
<g>
</g>
<g>
</g>
<g>
</g>
<g>
</g>
<g>
</g>
<g>
</g>
<g>
</g>
<g>
</g>
<g>
</g>
<g>
</g>
<g>
</g>
<g>
</g>
</svg>
