<?xml version="1.0" ?><svg id="filled" viewBox="0 0 64 64" xmlns="http://www.w3.org/2000/svg"><defs><style>.cls-1{fill:#f7dc6f;}.cls-1,.cls-2,.cls-3,.cls-4{stroke:#000;stroke-linecap:round;stroke-linejoin:round;stroke-width:2px;}.cls-2{fill:none;}.cls-3{fill:#fff;}.cls-4{fill:#f1c40f;}</style></defs><title/><path class="cls-1" d="M57.18,39.7625,33.8467,54.3457A24.0415,24.0415,0,0,1,21.1047,58H21.01A24.0182,24.0182,0,0,1,5.2131,52.0744l-.0111-.01A3.5112,3.5112,0,0,1,4,49.42V39.3708a5.9976,5.9976,0,0,1,2.8127-5.0834c5.2017-3.26,16.4234-10.2923,23.3376-14.6242A24.0091,24.0091,0,0,1,42.9,16h0a24.0183,24.0183,0,0,1,15.9157,6.03h0A3.5113,3.5113,0,0,1,60,24.66V34.6745A6,6,0,0,1,57.18,39.7625Z"/><path class="cls-2" d="M56.2255,28l-21.75,13.5936A22.41,22.41,0,0,1,22.5982,45H22.51A22.3883,22.3883,0,0,1,7.7849,39.4765l-.01-.0091"/><circle class="cls-3" cx="15" cy="26" r="6"/><circle class="cls-3" cx="27" cy="11" r="4"/><circle class="cls-3" cx="14" cy="12" r="2"/><ellipse class="cls-4" cx="45" cy="26.5" rx="4" ry="2.5"/><ellipse class="cls-4" cx="23" cy="38" rx="3" ry="2"/><path class="cls-4" d="M23.76,23.6671A5.3618,5.3618,0,0,0,27.5,25c2.4853,0,4.5-1.3431,4.5-3a2.8315,2.8315,0,0,0-1.7815-2.3763c-.0223.0139-.0459.0255-.0682.04C28.2707,20.8408,26.069,22.22,23.76,23.6671Z"/></svg>