<?xml version="1.0" encoding="iso-8859-1"?>
<!-- Generator: Adobe Illustrator 19.0.0, SVG Export Plug-In . SVG Version: 6.00 Build 0)  -->
<svg version="1.1" id="Capa_1" xmlns="http://www.w3.org/2000/svg" xmlns:xlink="http://www.w3.org/1999/xlink" x="0px" y="0px"
	 viewBox="0 0 512 512" style="enable-background:new 0 0 512 512;" xml:space="preserve">
<path style="fill:#00DDC2;" d="M288.098,445.488c-0.821-3.265-1.261-6.68-1.261-10.199c0-17.046,10.225-31.695,24.875-38.167
	c5.518-2.438,10.2-6.533,12.914-11.92c8.409-16.689,25.688-28.139,45.652-28.139c15.735,0,29.804,7.113,39.177,18.298
	c4.252,5.073,10.193,8.361,16.738,9.349c13.286,2.007,34.241,10.01,35.871,39.945c0.414,7.6-2.087,14.732-5.709,20.834H288.098
	V445.488z"/>
<path style="fill:#00AA95;" d="M425.146,384.503c-6.127-1.169-11.668-4.344-15.691-9.143c-9.373-11.184-23.443-18.298-39.177-18.298
	c-19.964,0-37.243,11.451-45.652,28.139c-2.715,5.387-7.396,9.482-12.914,11.92c-14.65,6.472-24.875,21.121-24.875,38.167
	c0,3.519,0.441,6.935,1.261,10.199h146.765C436.862,420.412,432.684,400.41,425.146,384.503z"/>
<path style="fill:#898890;" d="M294.348,43.382h-21.526V20.934c0-7.42-6.014-13.434-13.434-13.434
	c-7.42,0-13.434,6.014-13.434,13.434v22.447h-21.526c-7.42,0-13.434,6.014-13.434,13.434s6.014,13.434,13.434,13.434h21.526v42.184
	c0,7.42,6.014,13.434,13.434,13.434s13.434-6.014,13.434-13.434V70.249h21.526c7.42,0,13.434-6.014,13.434-13.434
	S301.768,43.382,294.348,43.382z"/>
<path style="fill:#787680;" d="M259.389,125.867c7.42,0,13.434-6.014,13.434-13.434V88.591c-4.429-0.381-8.908-0.587-13.434-0.587
	s-9.004,0.206-13.434,0.587v23.841C245.955,119.853,251.969,125.867,259.389,125.867z"/>
<path style="fill:#C6C5CA;" d="M394.943,438.418V243.559c0-74.555-60.999-135.554-135.554-135.554l0,0
	c-74.554,0-135.554,60.999-135.554,135.554v194.859H394.943z"/>
<path style="fill:#ACABB1;" d="M300.562,114.445c-12.999-4.176-26.833-6.44-41.173-6.44l0,0
	c-74.554,0-135.554,60.999-135.554,135.554v194.859h82.346V243.559C206.181,183.344,245.976,131.979,300.562,114.445z"/>
<path style="fill:#FF3F62;" d="M228.266,445.488c0.821-3.265,1.261-6.68,1.261-10.199c0-17.046-10.225-31.695-24.875-38.167
	c-5.518-2.438-10.2-6.533-12.914-11.92c-8.409-16.689-25.688-28.139-45.652-28.139c-15.735,0-29.804,7.113-39.177,18.298
	c-4.252,5.073-10.193,8.361-16.738,9.349c-13.286,2.007-34.241,10.01-35.871,39.945c-0.414,7.6,2.087,14.732,5.709,20.834h168.257
	V445.488z"/>
<path style="fill:#D80027;" d="M124.607,425.853c1.629-29.935,22.585-37.938,35.871-39.945c6.545-0.989,12.486-4.276,16.738-9.349
	c1.442-1.721,3.008-3.332,4.662-4.85c-9.217-9.056-21.847-14.648-35.792-14.648c-15.735,0-29.804,7.113-39.177,18.298
	c-4.252,5.073-10.193,8.361-16.738,9.349c-13.286,2.007-34.241,10.01-35.871,39.945c-0.414,7.6,2.086,14.732,5.709,20.834h69.618
	C126.383,439.658,124.22,432.961,124.607,425.853z"/>
<path style="fill:#E0E0E2;" d="M456.789,504.5H55.211c-18.173,0-33.041-14.869-33.041-33.041l0,0
	c0-18.173,14.869-33.041,33.041-33.041H456.79c18.173,0,33.041,14.869,33.041,33.041l0,0
	C489.831,489.632,474.962,504.5,456.789,504.5z"/>
<path style="fill:#C6C5CA;" d="M144.925,471.459L144.925,471.459c0-18.173,14.868-33.041,33.041-33.041H55.211
	c-18.173,0-33.041,14.869-33.041,33.041l0,0c0,18.173,14.868,33.041,33.041,33.041h122.755
	C159.793,504.5,144.925,489.632,144.925,471.459z"/>
<path d="M456.789,430.918h-54.347v-52.182c0.43,0.471,6.943,10.615,22.631,13.389c9.546,1.688,21.446,6.405,27.148,20.414
	c2.626,6.453,8.749,4.846,9.581,4.55c3.902-1.389,5.939-5.679,4.55-9.581c-5.899-16.572-19.764-27.303-39.039-30.215
	c-4.764-0.719-9.064-3.117-12.11-6.751c-3.701-4.417-7.986-8.215-12.761-11.353v-115.63c0-71.77-53.128-131.357-122.12-141.518
	V77.749h14.026c11.543,0,20.934-9.391,20.934-20.934s-9.391-20.934-20.934-20.934h-14.026V20.935C280.322,9.392,270.932,0,259.389,0
	s-20.934,9.392-20.934,20.935v14.947H224.43c-11.543,0-20.934,9.391-20.934,20.934s9.391,20.934,20.934,20.934h14.025v24.323
	c-25.729,3.852-50.175,14.734-70.408,31.594c-3.183,2.651-3.612,7.381-0.961,10.563s7.381,3.611,10.563,0.961
	c22.974-19.143,52.003-29.685,81.74-29.685c34.055,0,66.171,13.361,90.432,37.622s37.622,56.377,37.622,90.432v119.78
	c0,0.002,0,0.003,0,0.005v67.573H236.827c-0.437-4.984-1.616-9.835-3.537-14.468c-1.589-3.827-5.979-5.642-9.802-4.054
	c-3.826,1.588-5.641,5.976-4.054,9.802c1.162,2.801,1.928,5.721,2.308,8.72H62.215c-0.381-1.988-0.53-3.947-0.426-5.855
	c1.037-19.056,10.963-30.138,29.502-32.938c8.382-1.266,15.97-5.509,21.365-11.948c8.317-9.923,20.502-15.614,33.43-15.614
	c16.564,0,31.49,9.201,38.954,24.014c3.377,6.703,9.267,12.174,16.582,15.405c3.788,1.674,8.217-0.041,9.891-3.83
	s-0.041-8.217-3.83-9.891c-4.146-1.831-7.43-4.826-9.247-8.435c-10.027-19.9-30.086-32.264-52.35-32.264
	c-5.037,0-9.984,0.662-14.751,1.899V243.559c0-26.972,8.387-52.819,24.252-74.747c2.428-3.355,1.676-8.045-1.68-10.473
	s-8.044-1.677-10.473,1.68c-17.729,24.503-27.1,53.391-27.1,83.54v114.126c-5.679,3.351-10.825,7.667-15.176,12.857
	c-3.045,3.635-7.345,6.032-12.108,6.751c-25.429,3.841-40.824,20.955-42.24,46.955c-0.134,2.473-0.012,4.97,0.34,7.477
	c-18.506,3.748-32.48,20.139-32.48,39.734C14.67,493.813,32.856,512,55.211,512h401.578c22.354,0,40.541-18.187,40.541-40.541
	S479.144,430.918,456.789,430.918z M253.455,100.633V70.249c0-4.143-3.357-7.5-7.5-7.5H224.43c-3.271,0-5.934-2.662-5.934-5.934
	s2.662-5.934,5.934-5.934h21.525c4.143,0,7.5-3.357,7.5-7.5V20.935c0-3.272,2.662-5.935,5.934-5.935s5.934,2.662,5.934,5.935v22.447
	c0,4.143,3.357,7.5,7.5,7.5h21.526c3.271,0,5.934,2.662,5.934,5.934s-2.662,5.934-5.934,5.934h-21.526c-4.143,0-7.5,3.357-7.5,7.5
	v30.388C263.353,100.557,255.429,100.55,253.455,100.633z M456.789,497H55.211c-14.083,0-25.541-11.458-25.541-25.541
	s11.458-25.541,25.541-25.541h401.578c14.083,0,25.541,11.458,25.541,25.541S470.872,497,456.789,497z"/>
<path d="M306.833,297.074c-4.143,0-7.5-3.357-7.5-7.5v-81.78c0-3.675,2.663-6.809,6.29-7.401c1.046-0.173,25.765-4.036,40.886,8.815
	c7.453,6.333,11.231,15.29,11.231,26.621c0,11.302-3.76,20.368-11.176,26.948c-9.731,8.634-23.479,10.507-32.231,10.723v16.074
	C314.333,293.717,310.976,297.074,306.833,297.074z M314.333,214.729v43.782c6.89-0.223,16.433-1.743,22.309-6.982
	c4.104-3.659,6.099-8.794,6.099-15.699c0-6.822-1.944-11.792-5.944-15.191C330.607,215.38,320.743,214.588,314.333,214.729z"/>
<path d="M206.883,263.92c0.467-0.372,12.562-7.92,12.562-28.091c0-11.331-3.778-20.288-11.231-26.621
	c-15.121-12.852-39.84-8.988-40.886-8.815c-3.627,0.593-6.29,3.727-6.29,7.401v81.78c0,4.143,3.357,7.5,7.5,7.5s7.5-3.357,7.5-7.5
	V273.5c4.784-0.118,11.061-0.741,17.359-2.683l7.336,21.209c2.418,6.676,8.729,4.917,9.54,4.636c3.914-1.354,5.99-5.625,4.636-9.54
	L206.883,263.92z M176.038,214.729c6.414-0.141,16.273,0.651,22.463,5.909c4,3.399,5.944,8.369,5.944,15.191
	c0,6.905-1.995,12.04-6.099,15.699c-5.876,5.239-15.419,6.76-22.309,6.982v-43.781H176.038z"/>
<path d="M259.389,297.074c-4.143,0-7.5-3.357-7.5-7.5v-82.368c0-4.143,3.357-7.5,7.5-7.5s7.5,3.357,7.5,7.5v82.368
	C266.889,293.717,263.531,297.074,259.389,297.074z"/>
<g>
</g>
<g>
</g>
<g>
</g>
<g>
</g>
<g>
</g>
<g>
</g>
<g>
</g>
<g>
</g>
<g>
</g>
<g>
</g>
<g>
</g>
<g>
</g>
<g>
</g>
<g>
</g>
<g>
</g>
</svg>
