<svg id="Layer_1" enable-background="new 0 0 512.002 512.002" height="512" viewBox="0 0 512.002 512.002" width="512" xmlns="http://www.w3.org/2000/svg"><g><g clip-rule="evenodd" fill-rule="evenodd"><g><path d="m105.598 306.657c-7.032 7.827-17.219 12.769-28.505 12.769s-21.473-4.942-28.503-12.77c-22.751 10.766-38.589 33.968-38.589 60.692v19.168h134.184v-19.168c0-26.723-15.838-49.925-38.587-60.691z" fill="#cfd3df"/><path d="m463.414 306.657c-7.032 7.827-17.219 12.769-28.505 12.769s-21.473-4.942-28.503-12.77c-22.751 10.766-38.589 33.968-38.589 60.692v19.168h134.184v-19.168c0-26.723-15.838-49.925-38.587-60.691z" fill="#cfd3df"/><path d="m204.885 306.648c0-21.086-17.252-38.338-38.338-38.338s-38.338 17.252-38.338 38.338v19.169c0 9.801 3.727 18.773 9.833 25.569 7.032 7.827 17.219 12.769 28.505 12.769s21.473-4.942 28.505-12.769c6.106-6.796 9.833-15.769 9.833-25.569z" fill="#ffdcd5"/><path d="m195.052 351.387c-7.032 7.827-17.219 12.769-28.505 12.769s-21.473-4.942-28.503-12.77c-22.751 10.766-38.589 33.967-38.589 60.692v19.167h134.184v-19.167c0-26.723-15.837-49.926-38.587-60.691z" fill="#ffc144"/><path d="m383.793 306.648c0-21.086-17.252-38.338-38.338-38.338s-38.338 17.252-38.338 38.338v19.169c0 9.801 3.727 18.773 9.833 25.569 7.032 7.827 17.219 12.769 28.505 12.769s21.473-4.942 28.505-12.769c6.106-6.796 9.833-15.769 9.833-25.569z" fill="#ffdcd5"/><path d="m373.96 351.387c-7.032 7.827-17.219 12.769-28.505 12.769-11.285 0-21.473-4.942-28.503-12.77-22.751 10.766-38.588 33.967-38.588 60.692v19.167h134.184v-19.167c-.001-26.723-15.838-49.926-38.588-60.691z" fill="#ffc144"/><path d="m294.339 351.378c0-21.086-17.252-38.338-38.338-38.338s-38.338 17.252-38.338 38.338v19.169c0 9.801 3.727 18.773 9.833 25.569 7.032 7.827 17.219 12.769 28.505 12.769 11.285 0 21.473-4.942 28.505-12.769 6.106-6.797 9.833-15.769 9.833-25.569z" fill="#ffdcd5"/><path d="m284.506 396.117c-7.032 7.827-17.219 12.769-28.505 12.769s-21.473-4.942-28.503-12.77c-22.751 10.766-38.588 33.968-38.588 60.692v19.168h134.184v-19.168c0-26.724-15.838-49.927-38.588-60.691z" fill="#ff5d7d"/><g fill="#ffdcd5"><path d="m115.431 261.919c0-21.086-17.252-38.338-38.338-38.338s-38.338 17.252-38.338 38.338v19.17c0 9.8 3.727 18.773 9.833 25.569 7.032 7.827 17.219 12.769 28.505 12.769s21.473-4.942 28.505-12.769c6.106-6.796 9.833-15.769 9.833-25.569z"/><path d="m473.247 261.919c0-21.086-17.252-38.338-38.338-38.338s-38.338 17.252-38.338 38.338v19.17c0 9.8 3.727 18.773 9.833 25.569 7.032 7.827 17.219 12.769 28.505 12.769s21.473-4.942 28.505-12.769c6.106-6.796 9.833-15.769 9.833-25.569z"/></g></g><path d="m278.992 174.66c11.122 0 20.138-9.016 20.138-20.137 0-11.122-9.016-20.137-20.138-20.137-5.562 0-10.598-2.254-14.24-5.896-3.643-3.643-5.896-8.678-5.896-14.241 0-11.121-9.016-20.137-20.137-20.137-11.122 0-20.137 9.016-20.137 20.137 0 16.68 6.762 31.783 17.696 42.716 10.931 10.932 26.034 17.695 42.714 17.695z" fill="#b8ecbc"/><path d="m278.992 174.66c-16.68 0-31.783-6.763-42.716-17.696s-17.696-26.036-17.696-42.716c0-11.121 9.016-20.137 20.137-20.137s20.137 9.016 20.137 20.137c0 5.563 2.253 10.598 5.896 14.241s8.678 5.896 14.24 5.896c11.122 0 20.138 9.016 20.138 20.137.002 11.122-9.014 20.138-20.136 20.138zm47.72-109.396c-39.052-39.052-102.369-39.052-141.421 0s-39.052 102.369 0 141.421c13.529 13.529 29.971 22.367 47.307 26.522 5.54 9.602 11.079 19.204 16.622 28.805 2.901 5.182 10.468 5.355 13.516.091 5.564-9.637 11.12-19.267 16.675-28.897 17.333-4.155 33.773-12.993 47.3-26.521 39.053-39.052 39.053-102.369.001-141.421z" fill="#fff"/></g><g><path d="m477.792 303.357c3.478-6.67 5.457-14.24 5.457-22.269v-19.17c0-26.653-21.685-48.338-48.338-48.338s-48.338 21.685-48.338 48.338v19.17c0 .063.005.125.005.188-8.528-13.77-23.768-22.967-41.121-22.967-26.654 0-48.338 21.685-48.338 48.338v19.17c0 .063.005.125.005.188-8.528-13.77-23.768-22.966-41.121-22.966s-32.593 9.196-41.12 22.966c0-.063.005-.125.005-.187v-19.17c0-26.653-21.685-48.338-48.338-48.338-17.353 0-32.594 9.196-41.121 22.966 0-.063.005-.125.005-.188v-19.17c0-26.653-21.685-48.338-48.338-48.338s-48.338 21.685-48.338 48.338v19.17c0 8.028 1.979 15.598 5.456 22.268-21.321 14.251-34.214 37.97-34.214 63.992v19.168c0 5.522 4.477 10 10 10h81.03c-1.033 5.052-1.576 10.258-1.576 15.562v19.168c0 5.522 4.477 10 10 10h81.03c-1.033 5.052-1.576 10.258-1.576 15.562v19.168c0 5.522 4.477 10 10 10h22.089c5.523 0 10-4.478 10-10s-4.477-10-10-10h-12.089v-9.168c0-19.923 10.228-38.032 27.018-48.458 8.261 6.586 18.712 10.536 30.074 10.536 11.361 0 21.811-3.95 30.072-10.535 16.789 10.426 27.02 28.541 27.02 48.457v9.168h-12.095c-5.523 0-10 4.478-10 10s4.477 10 10 10h22.095c5.523 0 10-4.478 10-10v-19.168c0-5.303-.543-10.509-1.577-15.562h81.031c5.523 0 10-4.478 10-10v-19.168c0-5.303-.543-10.509-1.577-15.562h81.031c5.523 0 10-4.478 10-10v-19.168c.002-26.013-12.894-49.738-34.208-63.991zm-71.22-41.439c0-15.626 12.712-28.338 28.338-28.338 15.625 0 28.338 12.712 28.338 28.338v19.17c0 15.626-12.712 28.338-28.338 28.338-15.625 0-28.338-12.712-28.338-28.338zm-89.455 44.729c0-15.626 12.712-28.338 28.338-28.338h.001c15.625 0 28.337 12.712 28.337 28.338v19.17c0 15.626-12.712 28.338-28.338 28.338-15.625 0-28.338-12.712-28.338-28.338zm-178.909 0c0-15.626 12.712-28.338 28.338-28.338 15.625 0 28.338 12.712 28.338 28.338v19.17c0 15.626-12.712 28.338-28.338 28.338-15.625 0-28.338-12.712-28.338-28.338zm-89.455-44.729c0-15.626 12.712-28.338 28.338-28.338h.001c15.625 0 28.337 12.712 28.337 28.338v19.17c0 15.626-12.712 28.338-28.338 28.338s-28.338-12.712-28.338-28.338zm-28.753 114.598v-9.168c0-19.922 10.228-38.032 27.018-48.458 8.261 6.586 18.712 10.536 30.074 10.536 11.359 0 21.807-3.948 30.067-10.531 3.519 2.165 7.318 4.891 11.075 7.945.16 7.647 2.101 14.861 5.43 21.245-10.932 7.309-19.649 17.106-25.545 28.431zm89.455 44.729v-9.168c0-19.922 10.228-38.032 27.018-48.458 8.261 6.586 18.712 10.536 30.074 10.536 11.359 0 21.807-3.948 30.068-10.531 3.519 2.165 7.318 4.891 11.074 7.944.16 7.648 2.101 14.861 5.43 21.246-10.932 7.309-19.648 17.106-25.545 28.431zm146.545-22.36c-15.625 0-28.338-12.712-28.338-28.338v-19.17c0-15.626 12.712-28.338 28.338-28.338h.001c15.625 0 28.338 12.712 28.338 28.338v19.17c0 15.626-12.713 28.338-28.339 28.338zm146.548 22.36h-78.122c-5.897-11.324-14.613-21.12-25.543-28.429 3.33-6.386 5.271-13.601 5.431-21.251 3.75-3.045 7.551-5.776 11.073-7.942 8.261 6.584 18.71 10.532 30.07 10.532 11.361 0 21.811-3.95 30.072-10.535 16.789 10.426 27.02 28.541 27.02 48.457v9.168zm89.454-44.729h-78.121c-5.897-11.324-14.613-21.121-25.544-28.43 3.33-6.386 5.271-13.601 5.431-21.25 3.75-3.045 7.551-5.776 11.073-7.943 8.261 6.584 18.71 10.533 30.07 10.533 11.361 0 21.811-3.95 30.072-10.535 16.789 10.426 27.02 28.541 27.02 48.457v9.168z"/><path d="m226.024 241.825 14.508 25.141c3.119 5.512 8.996 8.962 15.357 9.009h.137c6.409 0 12.145-3.305 15.369-8.871 4.867-8.43 9.729-16.855 14.589-25.28 18.018-5.092 34.468-14.737 47.798-28.066 42.889-42.89 42.889-112.675 0-155.564-42.889-42.887-112.674-42.887-155.563 0-42.889 42.89-42.889 112.675 0 155.564 13.331 13.329 29.784 22.976 47.805 28.067zm-33.663-169.49c17.546-17.545 40.593-26.317 63.64-26.317s46.094 8.772 63.64 26.317c35.091 35.091 35.091 92.188 0 127.279-11.758 11.758-26.475 20.011-42.56 23.867-2.67.64-4.959 2.35-6.331 4.728-4.915 8.52-9.83 17.038-14.745 25.553l-14.745-25.552c-1.372-2.378-3.661-4.087-6.331-4.727-16.089-3.856-30.808-12.11-42.567-23.869-35.091-35.091-35.091-92.188-.001-127.279z"/><path d="m206.001 122.167h3.034c.614 5.52 1.857 10.9 3.717 16.047l-3.296 1.903c-4.783 2.762-6.422 8.877-3.66 13.66 1.852 3.208 5.213 5.002 8.669 5.002 1.696 0 3.416-.433 4.991-1.342l2.73-1.576c2.113 2.871 4.452 5.606 7.02 8.174 1.344 1.344 2.744 2.61 4.174 3.831l-1.957 3.389c-2.762 4.782-1.123 10.898 3.66 13.66 1.575.909 3.294 1.342 4.991 1.342 3.456 0 6.817-1.794 8.669-5.002l1.554-2.691c5.012 2.239 10.278 3.884 15.719 4.893v3.782c0 5.522 4.477 10 10 10s10-4.478 10-10v-3.414c3.868-.927 7.447-2.601 10.578-4.862l4.408 2.545c1.575.909 3.294 1.342 4.991 1.342 3.456 0 6.817-1.794 8.669-5.002 2.762-4.783 1.123-10.899-3.66-13.66l-2.947-1.702c.696-2.538 1.076-5.206 1.076-7.963 0-3.943-.769-7.708-2.152-11.162l3.877-3.877c3.905-3.905 3.906-10.236 0-14.142-3.904-3.905-10.236-3.905-14.142-.001l-2.936 2.935c-4.372-2.473-9.415-3.891-14.786-3.891-2.709 0-5.255-1.054-7.169-2.968-1.914-1.913-2.968-4.46-2.968-7.169 0-3.452-.591-6.766-1.664-9.858l4.286-4.286c3.905-3.906 3.905-10.237 0-14.143-3.905-3.904-10.237-3.904-14.142 0l-2.706 2.707c-4.621-2.885-10.072-4.558-15.91-4.558-.901 0-1.79.047-2.671.125l-2.613-4.525c-2.763-4.783-8.878-6.422-13.661-3.66s-6.421 8.878-3.66 13.66l1.669 2.89c-2.8 2.709-5.077 5.952-6.666 9.567h-5.115c-5.523 0-10 4.478-10 10s4.476 10 9.999 10zm42.854-7.919c0 8.052 3.134 15.62 8.825 21.312 5.691 5.691 13.26 8.825 21.312 8.825 5.59 0 10.138 4.548 10.138 10.138s-4.548 10.137-10.138 10.137c-13.463 0-26.122-5.244-35.645-14.767-9.522-9.522-14.767-22.182-14.767-35.645 0-5.59 4.547-10.138 10.137-10.138s10.138 4.548 10.138 10.138z"/><path d="m256.001 465.975h-.008c-5.523 0-9.996 4.478-9.996 10s4.481 10 10.004 10 10-4.478 10-10-4.477-10-10-10z"/></g></g></svg>