<svg id="Capa_1" enable-background="new 0 0 512 512" height="512" viewBox="0 0 512 512" width="512" xmlns="http://www.w3.org/2000/svg"><g id="XMLID_2_"><g id="XMLID_2538_"><path id="XMLID_389_" d="m43 190v312h426v-312l-213-143.5z" fill="#f8f8f8"/></g><g id="XMLID_2319_"><path id="XMLID_368_" d="m403.667 105.727v-52.06h44.333v84.499z" fill="#9da5be"/></g><g id="XMLID_2317_"><g id="XMLID_2318_"><path id="XMLID_733_" d="m468.676 209.68-212.676-141.968-212.675 141.968-26.649-39.923 239.324-159.757 239.325 159.757z" fill="#ff7a7a"/></g></g><g id="XMLID_2315_"><g id="XMLID_2316_"><path id="XMLID_728_" d="m468.676 209.68-212.676-141.968-212.675 141.968-26.649-39.923 239.324-159.757 239.325 159.757z" fill="#ff7a7a"/></g></g><g id="XMLID_1555_"><path id="XMLID_324_" d="m364.049 281.455c8.571-20.038 4.694-44.129-11.659-60.483-3.296-3.297-6.91-6.082-10.739-8.366-12.835-34.784-46.282-59.587-85.523-59.587-39.242 0-72.689 24.803-85.523 59.587-3.829 2.284-7.443 5.069-10.739 8.366-16.353 16.353-20.23 40.445-11.659 60.483-21.328 23.737-20.579 60.287 2.254 83.12 23.611 23.611 61.892 23.611 85.503 0 8.501-8.501 13.926-18.904 16.302-29.837h7.725c2.376 10.933 7.801 21.336 16.302 29.837 23.611 23.611 61.892 23.611 85.504 0 22.831-22.833 23.58-59.383 2.252-83.12z" fill="#ffd88e"/></g><g id="XMLID_325_"><path id="XMLID_270_" d="m228.843 355h-29.446c-52.064 0-94.27 42.206-94.27 94.27v12.293c0 22.333 18.104 40.437 40.437 40.437h221.127c22.333 0 40.437-18.104 40.437-40.437v-12.293c0-52.064-42.206-94.27-94.27-94.27h-29.446z" fill="#a0c8ff"/></g><g id="XMLID_269_"><path id="XMLID_334_" d="m466.125 355h-160.25c-19.813 0-35.875 16.062-35.875 35.875v111.125h232v-111.125c0-19.813-16.062-35.875-35.875-35.875z" fill="#e0e1e7"/></g><g id="XMLID_268_"><path id="XMLID_617_" d="m247.398 456h-21.398v46h20.595c12.703 0 23.18-10.297 23.401-23 .222-12.702-9.895-23-22.598-23z" fill="#ffd0c6"/></g><g id="XMLID_267_"><path id="XMLID_430_" d="m283.411 322.101v29.899c0 15.069-12.215 27.284-27.284 27.284-15.069 0-27.284-12.215-27.284-27.284v-29.899z" fill="#ffd0c6"/></g><g id="XMLID_1279_"><path id="XMLID_428_" d="m309.643 247.577v32.241c0 29.556-23.96 53.516-53.516 53.516-29.556 0-53.516-23.96-53.516-53.516v-32.241h39.286c8.956 0 17.389-4.223 22.752-11.396 9.456 7.385 21.11 11.396 33.108 11.396z" fill="#ffd0c6"/></g><g id="XMLID_329_"><path id="XMLID_478_" d="m395 418.5h-18c-5.523 0-10 4.478-10 10s4.477 10 10 10h18c5.523 0 10-4.478 10-10s-4.477-10-10-10z"/><path id="XMLID_486_" d="m43 365.6c2.63 0 5.21-1.069 7.07-2.93s2.93-4.44 2.93-7.07c0-2.64-1.07-5.21-2.93-7.069-1.86-1.87-4.44-2.931-7.07-2.931s-5.21 1.061-7.07 2.931c-1.86 1.859-2.93 4.429-2.93 7.069 0 2.63 1.07 5.21 2.93 7.07 1.86 1.861 4.44 2.93 7.07 2.93z"/><path id="XMLID_339_" d="m479 346.853v-134.629l24.642-36.916c3.066-4.594 1.828-10.803-2.766-13.869l-42.876-28.621v-79.15c0-5.522-4.477-10-10-10h-44.333c-5.523 0-10 4.478-10 10v36.206l-132.115-88.191c-3.361-2.244-7.742-2.244-11.104 0l-239.324 159.756c-4.594 3.066-5.832 9.275-2.766 13.869l24.642 36.916v98.373c0 5.522 4.477 10 10 10s10-4.478 10-10v-95.353l203-135.508 203 135.508v129.756h-73.403c7.63-21.898 4.032-46.536-10.177-65.446 7.394-23.062 1.435-48.258-15.959-65.652-2.965-2.965-6.21-5.639-9.68-7.976-15.434-37.77-52.636-62.907-93.654-62.907s-78.221 25.138-93.654 62.907c-3.469 2.337-6.714 5.01-9.68 7.975-17.393 17.395-23.352 42.59-15.96 65.651-19.17 25.483-18.678 60.734.9 85.691-25.819 18.998-42.607 49.587-42.607 84.028v12.293c0 11.425 3.824 21.971 10.252 30.437h-52.378v-91.403c0-5.522-4.477-10-10-10s-10 4.478-10 10v91.402h-23c-5.523 0-10 4.478-10 10s4.477 10 10 10h492c5.523 0 10-4.478 10-10v-111.125c0-20.826-13.954-38.443-33-44.022zm-65.333-283.186h24.333v55.8l-24.333-16.243zm-152.115-4.272c-1.681-1.122-3.616-1.683-5.552-1.683s-3.871.561-5.552 1.683l-204.358 136.415-15.545-23.288 225.455-150.498 225.456 150.498-15.546 23.288zm-105.908 228.743c2.602-2.896 3.287-7.037 1.756-10.616-7.27-16.995-3.526-36.417 9.536-49.479 2.639-2.64 5.597-4.944 8.791-6.85 1.964-1.172 3.467-2.98 4.259-5.126 11.708-31.73 42.307-53.049 76.142-53.049s64.434 21.318 76.142 53.049c.792 2.146 2.295 3.954 4.259 5.126 3.195 1.906 6.152 4.21 8.791 6.85 13.062 13.062 16.805 32.483 9.536 49.479-1.531 3.579-.846 7.721 1.756 10.616 14.122 15.718 16.821 38.431 7.264 56.862h-57.999c-4.32 0-8.498.613-12.464 1.735v-15.543c15.881-11.557 26.232-30.275 26.232-51.375v-32.24c0-5.522-4.477-10-10-10h-17.782c-5.965 0-11.56-2.529-15.504-6.806 2.447-5.537 3.817-11.652 3.817-18.084 0-5.522-4.477-10-10-10s-10 4.478-10 10c0 13.725-11.166 24.89-24.89 24.89h-32.674c-5.523 0-10 4.478-10 10v32.24c0 21.1 10.351 39.818 26.232 51.375v13.808h-19.446c-15.826 0-30.836 3.551-44.286 9.887-16.57-19.058-16.575-47.709.532-66.749zm100.483 35.195c-23.995 0-43.516-19.521-43.516-43.516v-22.24h22.674c11.041 0 21.157-4.014 28.984-10.65 7.447 6.745 17.237 10.65 27.592 10.65h7.782v22.24c0 23.995-19.521 43.516-43.516 43.516zm-9.532 168.667h-10.595v-26h11.398c3.438 0 6.639 1.33 9.012 3.744 2.374 2.416 3.648 5.641 3.588 9.081-.127 7.265-6.139 13.175-13.403 13.175zm13.405-43.505c-3.931-1.636-8.194-2.494-12.602-2.494h-90.75c-5.523 0-10 4.478-10 10s4.477 10 10 10h59.352v26h-70.437c-16.783 0-30.437-13.653-30.437-30.437v-12.293c0-46.467 37.803-84.271 84.27-84.271h21.79c5.288 14.166 18.954 24.282 34.941 24.282 1.308 0 2.599-.072 3.873-.204zm13.411-96.495c0 9.53-7.753 17.283-17.284 17.283s-17.284-7.753-17.284-17.283v-11.076c5.5 1.558 11.292 2.41 17.284 2.41s11.785-.852 17.284-2.41zm218.589 140h-212v-101.125c0-14.267 11.608-25.875 25.875-25.875h160.25c14.268 0 25.875 11.608 25.875 25.875z"/></g></g></svg>